M48
METRIC,TZ
T1C0.750
T2C0.800
T3C0.813
T4C1.000
%
G90
G05
T1
X156210Y-49530
X157480Y-49530
X158750Y-49530
X156210Y-55880
X157480Y-55880
X158750Y-55880
T2
X137160Y-49530
X149860Y-49530
X158750Y-71120
X158750Y-83820
X163830Y-71120
X163830Y-83820
X110490Y-72390
X110490Y-74930
X120650Y-72390
X120650Y-74930
X137160Y-55880
X149860Y-55880
T3
X124511Y-49086
X124511Y-51626
X124511Y-54166
X124511Y-56706
X124511Y-59246
X124511Y-61786
X124511Y-64326
X124511Y-66866
X124511Y-69406
X124511Y-71946
X124511Y-74486
X124511Y-77026
X124511Y-79566
X124511Y-82106
X132131Y-49086
X132131Y-51626
X132131Y-54166
X132131Y-56706
X132131Y-59246
X132131Y-61786
X132131Y-64326
X132131Y-66866
X132131Y-69406
X132131Y-71946
X132131Y-74486
X132131Y-77026
X132131Y-79566
X132131Y-82106
T4
X119380Y-50800
X119380Y-53340
X119380Y-55880
X119380Y-58420
X119380Y-60960
X119380Y-63500
X119380Y-66040
X138430Y-62230
X138430Y-64770
X138430Y-67310
X138430Y-69850
X138430Y-72390
X138430Y-74930
X138430Y-77470
X138430Y-80010
X138430Y-82550
X153670Y-62230
X153670Y-64770
X153670Y-67310
X153670Y-69850
X153670Y-72390
X153670Y-74930
X153670Y-77470
X153670Y-80010
X153670Y-82550
T0
M30
