G04 #@! TF.GenerationSoftware,KiCad,Pcbnew,(5.1.2-1)-1*
G04 #@! TF.CreationDate,2020-06-28T11:55:39+09:00*
G04 #@! TF.ProjectId,7seg_module,37736567-5f6d-46f6-9475-6c652e6b6963,rev?*
G04 #@! TF.SameCoordinates,Original*
G04 #@! TF.FileFunction,Copper,L1,Top*
G04 #@! TF.FilePolarity,Positive*
%FSLAX46Y46*%
G04 Gerber Fmt 4.6, Leading zero omitted, Abs format (unit mm)*
G04 Created by KiCad (PCBNEW (5.1.2-1)-1) date 2020-06-28 11:55:39*
%MOMM*%
%LPD*%
G04 APERTURE LIST*
%ADD10C,1.524000*%
%ADD11R,1.700000X1.700000*%
%ADD12O,1.700000X1.700000*%
%ADD13C,0.100000*%
%ADD14C,1.050000*%
%ADD15R,1.050000X1.500000*%
%ADD16O,1.050000X1.500000*%
%ADD17C,1.600000*%
%ADD18O,1.600000X1.600000*%
%ADD19R,1.500000X1.500000*%
%ADD20C,1.500000*%
%ADD21O,2.641600X1.320800*%
%ADD22C,0.250000*%
G04 APERTURE END LIST*
D10*
X110490000Y-72390000D03*
X110490000Y-74930000D03*
X120650000Y-72390000D03*
X120650000Y-74930000D03*
D11*
X119380000Y-50800000D03*
D12*
X119380000Y-53340000D03*
X119380000Y-55880000D03*
X119380000Y-58420000D03*
X119380000Y-60960000D03*
X119380000Y-63500000D03*
X119380000Y-66040000D03*
D13*
G36*
X157768229Y-48781264D02*
G01*
X157793711Y-48785044D01*
X157818700Y-48791303D01*
X157842954Y-48799982D01*
X157866242Y-48810996D01*
X157888337Y-48824239D01*
X157909028Y-48839585D01*
X157928116Y-48856884D01*
X157945415Y-48875972D01*
X157960761Y-48896663D01*
X157974004Y-48918758D01*
X157985018Y-48942046D01*
X157993697Y-48966300D01*
X157999956Y-48991289D01*
X158003736Y-49016771D01*
X158005000Y-49042500D01*
X158005000Y-50017500D01*
X158003736Y-50043229D01*
X157999956Y-50068711D01*
X157993697Y-50093700D01*
X157985018Y-50117954D01*
X157974004Y-50141242D01*
X157960761Y-50163337D01*
X157945415Y-50184028D01*
X157928116Y-50203116D01*
X157909028Y-50220415D01*
X157888337Y-50235761D01*
X157866242Y-50249004D01*
X157842954Y-50260018D01*
X157818700Y-50268697D01*
X157793711Y-50274956D01*
X157768229Y-50278736D01*
X157742500Y-50280000D01*
X157217500Y-50280000D01*
X157191771Y-50278736D01*
X157166289Y-50274956D01*
X157141300Y-50268697D01*
X157117046Y-50260018D01*
X157093758Y-50249004D01*
X157071663Y-50235761D01*
X157050972Y-50220415D01*
X157031884Y-50203116D01*
X157014585Y-50184028D01*
X156999239Y-50163337D01*
X156985996Y-50141242D01*
X156974982Y-50117954D01*
X156966303Y-50093700D01*
X156960044Y-50068711D01*
X156956264Y-50043229D01*
X156955000Y-50017500D01*
X156955000Y-49042500D01*
X156956264Y-49016771D01*
X156960044Y-48991289D01*
X156966303Y-48966300D01*
X156974982Y-48942046D01*
X156985996Y-48918758D01*
X156999239Y-48896663D01*
X157014585Y-48875972D01*
X157031884Y-48856884D01*
X157050972Y-48839585D01*
X157071663Y-48824239D01*
X157093758Y-48810996D01*
X157117046Y-48799982D01*
X157141300Y-48791303D01*
X157166289Y-48785044D01*
X157191771Y-48781264D01*
X157217500Y-48780000D01*
X157742500Y-48780000D01*
X157768229Y-48781264D01*
X157768229Y-48781264D01*
G37*
D14*
X157480000Y-49530000D03*
D13*
G36*
X159038229Y-48781264D02*
G01*
X159063711Y-48785044D01*
X159088700Y-48791303D01*
X159112954Y-48799982D01*
X159136242Y-48810996D01*
X159158337Y-48824239D01*
X159179028Y-48839585D01*
X159198116Y-48856884D01*
X159215415Y-48875972D01*
X159230761Y-48896663D01*
X159244004Y-48918758D01*
X159255018Y-48942046D01*
X159263697Y-48966300D01*
X159269956Y-48991289D01*
X159273736Y-49016771D01*
X159275000Y-49042500D01*
X159275000Y-50017500D01*
X159273736Y-50043229D01*
X159269956Y-50068711D01*
X159263697Y-50093700D01*
X159255018Y-50117954D01*
X159244004Y-50141242D01*
X159230761Y-50163337D01*
X159215415Y-50184028D01*
X159198116Y-50203116D01*
X159179028Y-50220415D01*
X159158337Y-50235761D01*
X159136242Y-50249004D01*
X159112954Y-50260018D01*
X159088700Y-50268697D01*
X159063711Y-50274956D01*
X159038229Y-50278736D01*
X159012500Y-50280000D01*
X158487500Y-50280000D01*
X158461771Y-50278736D01*
X158436289Y-50274956D01*
X158411300Y-50268697D01*
X158387046Y-50260018D01*
X158363758Y-50249004D01*
X158341663Y-50235761D01*
X158320972Y-50220415D01*
X158301884Y-50203116D01*
X158284585Y-50184028D01*
X158269239Y-50163337D01*
X158255996Y-50141242D01*
X158244982Y-50117954D01*
X158236303Y-50093700D01*
X158230044Y-50068711D01*
X158226264Y-50043229D01*
X158225000Y-50017500D01*
X158225000Y-49042500D01*
X158226264Y-49016771D01*
X158230044Y-48991289D01*
X158236303Y-48966300D01*
X158244982Y-48942046D01*
X158255996Y-48918758D01*
X158269239Y-48896663D01*
X158284585Y-48875972D01*
X158301884Y-48856884D01*
X158320972Y-48839585D01*
X158341663Y-48824239D01*
X158363758Y-48810996D01*
X158387046Y-48799982D01*
X158411300Y-48791303D01*
X158436289Y-48785044D01*
X158461771Y-48781264D01*
X158487500Y-48780000D01*
X159012500Y-48780000D01*
X159038229Y-48781264D01*
X159038229Y-48781264D01*
G37*
D14*
X158750000Y-49530000D03*
D15*
X156210000Y-49530000D03*
X158750000Y-55880000D03*
D16*
X156210000Y-55880000D03*
X157480000Y-55880000D03*
D17*
X163830000Y-71120000D03*
D18*
X163830000Y-83820000D03*
X137160000Y-55880000D03*
D17*
X149860000Y-55880000D03*
X149860000Y-49530000D03*
D18*
X137160000Y-49530000D03*
X158750000Y-83820000D03*
D17*
X158750000Y-71120000D03*
D19*
X138430000Y-62230000D03*
D20*
X138430000Y-64770000D03*
X138430000Y-67310000D03*
X138430000Y-69850000D03*
X138430000Y-72390000D03*
X138430000Y-74930000D03*
X138430000Y-77470000D03*
X138430000Y-80010000D03*
X138430000Y-82550000D03*
X153670000Y-82550000D03*
X153670000Y-80010000D03*
X153670000Y-77470000D03*
X153670000Y-74930000D03*
X153670000Y-72390000D03*
X153670000Y-69850000D03*
X153670000Y-67310000D03*
X153670000Y-64770000D03*
X153670000Y-62230000D03*
D21*
X124510800Y-49085501D03*
X124510800Y-51625501D03*
X124510800Y-54165501D03*
X124510800Y-56705501D03*
X124510800Y-59245501D03*
X124510800Y-61785501D03*
X124510800Y-64325501D03*
X124510800Y-66865501D03*
X124510800Y-69405501D03*
X124510800Y-71945501D03*
X124510800Y-74485501D03*
X124510800Y-77025501D03*
X124510800Y-79565501D03*
X124510800Y-82105501D03*
X132130800Y-82105501D03*
X132130800Y-79565501D03*
X132130800Y-77025501D03*
X132130800Y-74485501D03*
X132130800Y-71945501D03*
X132130800Y-69405501D03*
X132130800Y-66865501D03*
X132130800Y-64325501D03*
X132130800Y-61785501D03*
X132130800Y-59245501D03*
X132130800Y-56705501D03*
X132130800Y-54165501D03*
X132130800Y-51625501D03*
X132130800Y-49085501D03*
D22*
X120650000Y-71312370D02*
X120650000Y-72390000D01*
X123850400Y-64325501D02*
X120650000Y-67525901D01*
X120650000Y-67525901D02*
X120650000Y-71312370D01*
X124510800Y-64325501D02*
X123850400Y-64325501D01*
X110490000Y-72390000D02*
X120650000Y-72390000D01*
X163830000Y-69988630D02*
X163830000Y-71120000D01*
X163830000Y-56730000D02*
X163830000Y-69988630D01*
X157480000Y-50380000D02*
X163830000Y-56730000D01*
X157480000Y-49530000D02*
X157480000Y-50380000D01*
X157480000Y-69850000D02*
X158750000Y-71120000D01*
X157480000Y-55880000D02*
X157480000Y-69850000D01*
X163830000Y-82550000D02*
X163830000Y-83820000D01*
X153670000Y-72390000D02*
X163830000Y-82550000D01*
X158750000Y-80010000D02*
X158750000Y-83820000D01*
X153670000Y-74930000D02*
X158750000Y-80010000D01*
X137680001Y-65519999D02*
X138430000Y-64770000D01*
X137160000Y-66040000D02*
X137680001Y-65519999D01*
X137160000Y-73660000D02*
X137160000Y-66040000D01*
X138430000Y-74930000D02*
X137160000Y-73660000D01*
X137985501Y-79565501D02*
X138430000Y-80010000D01*
X132130800Y-79565501D02*
X137985501Y-79565501D01*
X139179999Y-68059999D02*
X138430000Y-67310000D01*
X139700000Y-68580000D02*
X139179999Y-68059999D01*
X139700000Y-78740000D02*
X139700000Y-68580000D01*
X138430000Y-80010000D02*
X139700000Y-78740000D01*
X126081600Y-70315901D02*
X125171200Y-69405501D01*
X126081600Y-70976301D02*
X126081600Y-70315901D01*
X130576210Y-75470911D02*
X126081600Y-70976301D01*
X125171200Y-69405501D02*
X124510800Y-69405501D01*
X132630190Y-75470911D02*
X130576210Y-75470911D01*
X134629279Y-77470000D02*
X132630190Y-75470911D01*
X138430000Y-77470000D02*
X134629279Y-77470000D01*
X153670000Y-69850000D02*
X151130000Y-72390000D01*
X151130000Y-80010000D02*
X153670000Y-82550000D01*
X151130000Y-72390000D02*
X151130000Y-80010000D01*
X133701600Y-82105501D02*
X136686099Y-85090000D01*
X132130800Y-82105501D02*
X133701600Y-82105501D01*
X151130000Y-85090000D02*
X153670000Y-82550000D01*
X136686099Y-85090000D02*
X151130000Y-85090000D01*
X130076820Y-82105501D02*
X134331319Y-86360000D01*
X124510800Y-82105501D02*
X130076820Y-82105501D01*
X154745001Y-81085001D02*
X154419999Y-80759999D01*
X151451002Y-86360000D02*
X154745001Y-83066001D01*
X154419999Y-80759999D02*
X153670000Y-80010000D01*
X154745001Y-83066001D02*
X154745001Y-81085001D01*
X134331319Y-86360000D02*
X151451002Y-86360000D01*
M02*
