G04 #@! TF.GenerationSoftware,KiCad,Pcbnew,(5.1.2-1)-1*
G04 #@! TF.CreationDate,2020-06-28T11:55:39+09:00*
G04 #@! TF.ProjectId,7seg_module,37736567-5f6d-46f6-9475-6c652e6b6963,rev?*
G04 #@! TF.SameCoordinates,Original*
G04 #@! TF.FileFunction,Soldermask,Top*
G04 #@! TF.FilePolarity,Negative*
%FSLAX46Y46*%
G04 Gerber Fmt 4.6, Leading zero omitted, Abs format (unit mm)*
G04 Created by KiCad (PCBNEW (5.1.2-1)-1) date 2020-06-28 11:55:39*
%MOMM*%
%LPD*%
G04 APERTURE LIST*
%ADD10C,0.100000*%
G04 APERTURE END LIST*
D10*
G36*
X163996823Y-82981313D02*
G01*
X164157242Y-83029976D01*
X164214550Y-83060608D01*
X164305078Y-83108996D01*
X164434659Y-83215341D01*
X164541004Y-83344922D01*
X164541005Y-83344924D01*
X164620024Y-83492758D01*
X164668687Y-83653177D01*
X164685117Y-83820000D01*
X164668687Y-83986823D01*
X164620024Y-84147242D01*
X164549114Y-84279906D01*
X164541004Y-84295078D01*
X164434659Y-84424659D01*
X164305078Y-84531004D01*
X164305076Y-84531005D01*
X164157242Y-84610024D01*
X163996823Y-84658687D01*
X163871804Y-84671000D01*
X163788196Y-84671000D01*
X163663177Y-84658687D01*
X163502758Y-84610024D01*
X163354924Y-84531005D01*
X163354922Y-84531004D01*
X163225341Y-84424659D01*
X163118996Y-84295078D01*
X163110886Y-84279906D01*
X163039976Y-84147242D01*
X162991313Y-83986823D01*
X162974883Y-83820000D01*
X162991313Y-83653177D01*
X163039976Y-83492758D01*
X163118995Y-83344924D01*
X163118996Y-83344922D01*
X163225341Y-83215341D01*
X163354922Y-83108996D01*
X163445450Y-83060608D01*
X163502758Y-83029976D01*
X163663177Y-82981313D01*
X163788196Y-82969000D01*
X163871804Y-82969000D01*
X163996823Y-82981313D01*
X163996823Y-82981313D01*
G37*
G36*
X158916823Y-82981313D02*
G01*
X159077242Y-83029976D01*
X159134550Y-83060608D01*
X159225078Y-83108996D01*
X159354659Y-83215341D01*
X159461004Y-83344922D01*
X159461005Y-83344924D01*
X159540024Y-83492758D01*
X159588687Y-83653177D01*
X159605117Y-83820000D01*
X159588687Y-83986823D01*
X159540024Y-84147242D01*
X159469114Y-84279906D01*
X159461004Y-84295078D01*
X159354659Y-84424659D01*
X159225078Y-84531004D01*
X159225076Y-84531005D01*
X159077242Y-84610024D01*
X158916823Y-84658687D01*
X158791804Y-84671000D01*
X158708196Y-84671000D01*
X158583177Y-84658687D01*
X158422758Y-84610024D01*
X158274924Y-84531005D01*
X158274922Y-84531004D01*
X158145341Y-84424659D01*
X158038996Y-84295078D01*
X158030886Y-84279906D01*
X157959976Y-84147242D01*
X157911313Y-83986823D01*
X157894883Y-83820000D01*
X157911313Y-83653177D01*
X157959976Y-83492758D01*
X158038995Y-83344924D01*
X158038996Y-83344922D01*
X158145341Y-83215341D01*
X158274922Y-83108996D01*
X158365450Y-83060608D01*
X158422758Y-83029976D01*
X158583177Y-82981313D01*
X158708196Y-82969000D01*
X158791804Y-82969000D01*
X158916823Y-82981313D01*
X158916823Y-82981313D01*
G37*
G36*
X153903642Y-81779781D02*
G01*
X154049414Y-81840162D01*
X154049416Y-81840163D01*
X154180608Y-81927822D01*
X154292178Y-82039392D01*
X154336350Y-82105501D01*
X154379838Y-82170586D01*
X154440219Y-82316358D01*
X154471000Y-82471107D01*
X154471000Y-82628893D01*
X154440219Y-82783642D01*
X154379838Y-82929414D01*
X154379837Y-82929416D01*
X154292178Y-83060608D01*
X154180608Y-83172178D01*
X154049416Y-83259837D01*
X154049415Y-83259838D01*
X154049414Y-83259838D01*
X153903642Y-83320219D01*
X153748893Y-83351000D01*
X153591107Y-83351000D01*
X153436358Y-83320219D01*
X153290586Y-83259838D01*
X153290585Y-83259838D01*
X153290584Y-83259837D01*
X153159392Y-83172178D01*
X153047822Y-83060608D01*
X152960163Y-82929416D01*
X152960162Y-82929414D01*
X152899781Y-82783642D01*
X152869000Y-82628893D01*
X152869000Y-82471107D01*
X152899781Y-82316358D01*
X152960162Y-82170586D01*
X153003650Y-82105501D01*
X153047822Y-82039392D01*
X153159392Y-81927822D01*
X153290584Y-81840163D01*
X153290586Y-81840162D01*
X153436358Y-81779781D01*
X153591107Y-81749000D01*
X153748893Y-81749000D01*
X153903642Y-81779781D01*
X153903642Y-81779781D01*
G37*
G36*
X138663642Y-81779781D02*
G01*
X138809414Y-81840162D01*
X138809416Y-81840163D01*
X138940608Y-81927822D01*
X139052178Y-82039392D01*
X139096350Y-82105501D01*
X139139838Y-82170586D01*
X139200219Y-82316358D01*
X139231000Y-82471107D01*
X139231000Y-82628893D01*
X139200219Y-82783642D01*
X139139838Y-82929414D01*
X139139837Y-82929416D01*
X139052178Y-83060608D01*
X138940608Y-83172178D01*
X138809416Y-83259837D01*
X138809415Y-83259838D01*
X138809414Y-83259838D01*
X138663642Y-83320219D01*
X138508893Y-83351000D01*
X138351107Y-83351000D01*
X138196358Y-83320219D01*
X138050586Y-83259838D01*
X138050585Y-83259838D01*
X138050584Y-83259837D01*
X137919392Y-83172178D01*
X137807822Y-83060608D01*
X137720163Y-82929416D01*
X137720162Y-82929414D01*
X137659781Y-82783642D01*
X137629000Y-82628893D01*
X137629000Y-82471107D01*
X137659781Y-82316358D01*
X137720162Y-82170586D01*
X137763650Y-82105501D01*
X137807822Y-82039392D01*
X137919392Y-81927822D01*
X138050584Y-81840163D01*
X138050586Y-81840162D01*
X138196358Y-81779781D01*
X138351107Y-81749000D01*
X138508893Y-81749000D01*
X138663642Y-81779781D01*
X138663642Y-81779781D01*
G37*
G36*
X132930659Y-81404394D02*
G01*
X133064758Y-81445073D01*
X133188345Y-81511132D01*
X133296670Y-81600031D01*
X133385569Y-81708356D01*
X133451628Y-81831943D01*
X133492307Y-81966042D01*
X133506042Y-82105501D01*
X133492307Y-82244960D01*
X133451628Y-82379059D01*
X133385569Y-82502646D01*
X133296670Y-82610971D01*
X133188345Y-82699870D01*
X133064758Y-82765929D01*
X132930659Y-82806608D01*
X132826149Y-82816901D01*
X131435451Y-82816901D01*
X131330941Y-82806608D01*
X131196842Y-82765929D01*
X131073255Y-82699870D01*
X130964930Y-82610971D01*
X130876031Y-82502646D01*
X130809972Y-82379059D01*
X130769293Y-82244960D01*
X130755558Y-82105501D01*
X130769293Y-81966042D01*
X130809972Y-81831943D01*
X130876031Y-81708356D01*
X130964930Y-81600031D01*
X131073255Y-81511132D01*
X131196842Y-81445073D01*
X131330941Y-81404394D01*
X131435451Y-81394101D01*
X132826149Y-81394101D01*
X132930659Y-81404394D01*
X132930659Y-81404394D01*
G37*
G36*
X125310659Y-81404394D02*
G01*
X125444758Y-81445073D01*
X125568345Y-81511132D01*
X125676670Y-81600031D01*
X125765569Y-81708356D01*
X125831628Y-81831943D01*
X125872307Y-81966042D01*
X125886042Y-82105501D01*
X125872307Y-82244960D01*
X125831628Y-82379059D01*
X125765569Y-82502646D01*
X125676670Y-82610971D01*
X125568345Y-82699870D01*
X125444758Y-82765929D01*
X125310659Y-82806608D01*
X125206149Y-82816901D01*
X123815451Y-82816901D01*
X123710941Y-82806608D01*
X123576842Y-82765929D01*
X123453255Y-82699870D01*
X123344930Y-82610971D01*
X123256031Y-82502646D01*
X123189972Y-82379059D01*
X123149293Y-82244960D01*
X123135558Y-82105501D01*
X123149293Y-81966042D01*
X123189972Y-81831943D01*
X123256031Y-81708356D01*
X123344930Y-81600031D01*
X123453255Y-81511132D01*
X123576842Y-81445073D01*
X123710941Y-81404394D01*
X123815451Y-81394101D01*
X125206149Y-81394101D01*
X125310659Y-81404394D01*
X125310659Y-81404394D01*
G37*
G36*
X153903642Y-79239781D02*
G01*
X154049414Y-79300162D01*
X154049416Y-79300163D01*
X154180608Y-79387822D01*
X154292178Y-79499392D01*
X154336350Y-79565501D01*
X154379838Y-79630586D01*
X154440219Y-79776358D01*
X154471000Y-79931107D01*
X154471000Y-80088893D01*
X154440219Y-80243642D01*
X154379838Y-80389414D01*
X154379837Y-80389416D01*
X154292178Y-80520608D01*
X154180608Y-80632178D01*
X154049416Y-80719837D01*
X154049415Y-80719838D01*
X154049414Y-80719838D01*
X153903642Y-80780219D01*
X153748893Y-80811000D01*
X153591107Y-80811000D01*
X153436358Y-80780219D01*
X153290586Y-80719838D01*
X153290585Y-80719838D01*
X153290584Y-80719837D01*
X153159392Y-80632178D01*
X153047822Y-80520608D01*
X152960163Y-80389416D01*
X152960162Y-80389414D01*
X152899781Y-80243642D01*
X152869000Y-80088893D01*
X152869000Y-79931107D01*
X152899781Y-79776358D01*
X152960162Y-79630586D01*
X153003650Y-79565501D01*
X153047822Y-79499392D01*
X153159392Y-79387822D01*
X153290584Y-79300163D01*
X153290586Y-79300162D01*
X153436358Y-79239781D01*
X153591107Y-79209000D01*
X153748893Y-79209000D01*
X153903642Y-79239781D01*
X153903642Y-79239781D01*
G37*
G36*
X138663642Y-79239781D02*
G01*
X138809414Y-79300162D01*
X138809416Y-79300163D01*
X138940608Y-79387822D01*
X139052178Y-79499392D01*
X139096350Y-79565501D01*
X139139838Y-79630586D01*
X139200219Y-79776358D01*
X139231000Y-79931107D01*
X139231000Y-80088893D01*
X139200219Y-80243642D01*
X139139838Y-80389414D01*
X139139837Y-80389416D01*
X139052178Y-80520608D01*
X138940608Y-80632178D01*
X138809416Y-80719837D01*
X138809415Y-80719838D01*
X138809414Y-80719838D01*
X138663642Y-80780219D01*
X138508893Y-80811000D01*
X138351107Y-80811000D01*
X138196358Y-80780219D01*
X138050586Y-80719838D01*
X138050585Y-80719838D01*
X138050584Y-80719837D01*
X137919392Y-80632178D01*
X137807822Y-80520608D01*
X137720163Y-80389416D01*
X137720162Y-80389414D01*
X137659781Y-80243642D01*
X137629000Y-80088893D01*
X137629000Y-79931107D01*
X137659781Y-79776358D01*
X137720162Y-79630586D01*
X137763650Y-79565501D01*
X137807822Y-79499392D01*
X137919392Y-79387822D01*
X138050584Y-79300163D01*
X138050586Y-79300162D01*
X138196358Y-79239781D01*
X138351107Y-79209000D01*
X138508893Y-79209000D01*
X138663642Y-79239781D01*
X138663642Y-79239781D01*
G37*
G36*
X132930659Y-78864394D02*
G01*
X133064758Y-78905073D01*
X133188345Y-78971132D01*
X133296670Y-79060031D01*
X133385569Y-79168356D01*
X133451628Y-79291943D01*
X133492307Y-79426042D01*
X133506042Y-79565501D01*
X133492307Y-79704960D01*
X133451628Y-79839059D01*
X133385569Y-79962646D01*
X133296670Y-80070971D01*
X133188345Y-80159870D01*
X133064758Y-80225929D01*
X132930659Y-80266608D01*
X132826149Y-80276901D01*
X131435451Y-80276901D01*
X131330941Y-80266608D01*
X131196842Y-80225929D01*
X131073255Y-80159870D01*
X130964930Y-80070971D01*
X130876031Y-79962646D01*
X130809972Y-79839059D01*
X130769293Y-79704960D01*
X130755558Y-79565501D01*
X130769293Y-79426042D01*
X130809972Y-79291943D01*
X130876031Y-79168356D01*
X130964930Y-79060031D01*
X131073255Y-78971132D01*
X131196842Y-78905073D01*
X131330941Y-78864394D01*
X131435451Y-78854101D01*
X132826149Y-78854101D01*
X132930659Y-78864394D01*
X132930659Y-78864394D01*
G37*
G36*
X125310659Y-78864394D02*
G01*
X125444758Y-78905073D01*
X125568345Y-78971132D01*
X125676670Y-79060031D01*
X125765569Y-79168356D01*
X125831628Y-79291943D01*
X125872307Y-79426042D01*
X125886042Y-79565501D01*
X125872307Y-79704960D01*
X125831628Y-79839059D01*
X125765569Y-79962646D01*
X125676670Y-80070971D01*
X125568345Y-80159870D01*
X125444758Y-80225929D01*
X125310659Y-80266608D01*
X125206149Y-80276901D01*
X123815451Y-80276901D01*
X123710941Y-80266608D01*
X123576842Y-80225929D01*
X123453255Y-80159870D01*
X123344930Y-80070971D01*
X123256031Y-79962646D01*
X123189972Y-79839059D01*
X123149293Y-79704960D01*
X123135558Y-79565501D01*
X123149293Y-79426042D01*
X123189972Y-79291943D01*
X123256031Y-79168356D01*
X123344930Y-79060031D01*
X123453255Y-78971132D01*
X123576842Y-78905073D01*
X123710941Y-78864394D01*
X123815451Y-78854101D01*
X125206149Y-78854101D01*
X125310659Y-78864394D01*
X125310659Y-78864394D01*
G37*
G36*
X153903642Y-76699781D02*
G01*
X154049414Y-76760162D01*
X154049416Y-76760163D01*
X154180608Y-76847822D01*
X154292178Y-76959392D01*
X154336350Y-77025501D01*
X154379838Y-77090586D01*
X154440219Y-77236358D01*
X154471000Y-77391107D01*
X154471000Y-77548893D01*
X154440219Y-77703642D01*
X154379838Y-77849414D01*
X154379837Y-77849416D01*
X154292178Y-77980608D01*
X154180608Y-78092178D01*
X154049416Y-78179837D01*
X154049415Y-78179838D01*
X154049414Y-78179838D01*
X153903642Y-78240219D01*
X153748893Y-78271000D01*
X153591107Y-78271000D01*
X153436358Y-78240219D01*
X153290586Y-78179838D01*
X153290585Y-78179838D01*
X153290584Y-78179837D01*
X153159392Y-78092178D01*
X153047822Y-77980608D01*
X152960163Y-77849416D01*
X152960162Y-77849414D01*
X152899781Y-77703642D01*
X152869000Y-77548893D01*
X152869000Y-77391107D01*
X152899781Y-77236358D01*
X152960162Y-77090586D01*
X153003650Y-77025501D01*
X153047822Y-76959392D01*
X153159392Y-76847822D01*
X153290584Y-76760163D01*
X153290586Y-76760162D01*
X153436358Y-76699781D01*
X153591107Y-76669000D01*
X153748893Y-76669000D01*
X153903642Y-76699781D01*
X153903642Y-76699781D01*
G37*
G36*
X138663642Y-76699781D02*
G01*
X138809414Y-76760162D01*
X138809416Y-76760163D01*
X138940608Y-76847822D01*
X139052178Y-76959392D01*
X139096350Y-77025501D01*
X139139838Y-77090586D01*
X139200219Y-77236358D01*
X139231000Y-77391107D01*
X139231000Y-77548893D01*
X139200219Y-77703642D01*
X139139838Y-77849414D01*
X139139837Y-77849416D01*
X139052178Y-77980608D01*
X138940608Y-78092178D01*
X138809416Y-78179837D01*
X138809415Y-78179838D01*
X138809414Y-78179838D01*
X138663642Y-78240219D01*
X138508893Y-78271000D01*
X138351107Y-78271000D01*
X138196358Y-78240219D01*
X138050586Y-78179838D01*
X138050585Y-78179838D01*
X138050584Y-78179837D01*
X137919392Y-78092178D01*
X137807822Y-77980608D01*
X137720163Y-77849416D01*
X137720162Y-77849414D01*
X137659781Y-77703642D01*
X137629000Y-77548893D01*
X137629000Y-77391107D01*
X137659781Y-77236358D01*
X137720162Y-77090586D01*
X137763650Y-77025501D01*
X137807822Y-76959392D01*
X137919392Y-76847822D01*
X138050584Y-76760163D01*
X138050586Y-76760162D01*
X138196358Y-76699781D01*
X138351107Y-76669000D01*
X138508893Y-76669000D01*
X138663642Y-76699781D01*
X138663642Y-76699781D01*
G37*
G36*
X132930659Y-76324394D02*
G01*
X133064758Y-76365073D01*
X133188345Y-76431132D01*
X133296670Y-76520031D01*
X133385569Y-76628356D01*
X133451628Y-76751943D01*
X133492307Y-76886042D01*
X133506042Y-77025501D01*
X133492307Y-77164960D01*
X133451628Y-77299059D01*
X133385569Y-77422646D01*
X133296670Y-77530971D01*
X133188345Y-77619870D01*
X133064758Y-77685929D01*
X132930659Y-77726608D01*
X132826149Y-77736901D01*
X131435451Y-77736901D01*
X131330941Y-77726608D01*
X131196842Y-77685929D01*
X131073255Y-77619870D01*
X130964930Y-77530971D01*
X130876031Y-77422646D01*
X130809972Y-77299059D01*
X130769293Y-77164960D01*
X130755558Y-77025501D01*
X130769293Y-76886042D01*
X130809972Y-76751943D01*
X130876031Y-76628356D01*
X130964930Y-76520031D01*
X131073255Y-76431132D01*
X131196842Y-76365073D01*
X131330941Y-76324394D01*
X131435451Y-76314101D01*
X132826149Y-76314101D01*
X132930659Y-76324394D01*
X132930659Y-76324394D01*
G37*
G36*
X125310659Y-76324394D02*
G01*
X125444758Y-76365073D01*
X125568345Y-76431132D01*
X125676670Y-76520031D01*
X125765569Y-76628356D01*
X125831628Y-76751943D01*
X125872307Y-76886042D01*
X125886042Y-77025501D01*
X125872307Y-77164960D01*
X125831628Y-77299059D01*
X125765569Y-77422646D01*
X125676670Y-77530971D01*
X125568345Y-77619870D01*
X125444758Y-77685929D01*
X125310659Y-77726608D01*
X125206149Y-77736901D01*
X123815451Y-77736901D01*
X123710941Y-77726608D01*
X123576842Y-77685929D01*
X123453255Y-77619870D01*
X123344930Y-77530971D01*
X123256031Y-77422646D01*
X123189972Y-77299059D01*
X123149293Y-77164960D01*
X123135558Y-77025501D01*
X123149293Y-76886042D01*
X123189972Y-76751943D01*
X123256031Y-76628356D01*
X123344930Y-76520031D01*
X123453255Y-76431132D01*
X123576842Y-76365073D01*
X123710941Y-76324394D01*
X123815451Y-76314101D01*
X125206149Y-76314101D01*
X125310659Y-76324394D01*
X125310659Y-76324394D01*
G37*
G36*
X110727142Y-74148242D02*
G01*
X110875101Y-74209529D01*
X111008255Y-74298499D01*
X111121501Y-74411745D01*
X111210471Y-74544899D01*
X111271758Y-74692858D01*
X111303000Y-74849925D01*
X111303000Y-75010075D01*
X111271758Y-75167142D01*
X111210471Y-75315101D01*
X111121501Y-75448255D01*
X111008255Y-75561501D01*
X110875101Y-75650471D01*
X110727142Y-75711758D01*
X110570075Y-75743000D01*
X110409925Y-75743000D01*
X110252858Y-75711758D01*
X110104899Y-75650471D01*
X109971745Y-75561501D01*
X109858499Y-75448255D01*
X109769529Y-75315101D01*
X109708242Y-75167142D01*
X109677000Y-75010075D01*
X109677000Y-74849925D01*
X109708242Y-74692858D01*
X109769529Y-74544899D01*
X109858499Y-74411745D01*
X109971745Y-74298499D01*
X110104899Y-74209529D01*
X110252858Y-74148242D01*
X110409925Y-74117000D01*
X110570075Y-74117000D01*
X110727142Y-74148242D01*
X110727142Y-74148242D01*
G37*
G36*
X120887142Y-74148242D02*
G01*
X121035101Y-74209529D01*
X121168255Y-74298499D01*
X121281501Y-74411745D01*
X121370471Y-74544899D01*
X121431758Y-74692858D01*
X121463000Y-74849925D01*
X121463000Y-75010075D01*
X121431758Y-75167142D01*
X121370471Y-75315101D01*
X121281501Y-75448255D01*
X121168255Y-75561501D01*
X121035101Y-75650471D01*
X120887142Y-75711758D01*
X120730075Y-75743000D01*
X120569925Y-75743000D01*
X120412858Y-75711758D01*
X120264899Y-75650471D01*
X120131745Y-75561501D01*
X120018499Y-75448255D01*
X119929529Y-75315101D01*
X119868242Y-75167142D01*
X119837000Y-75010075D01*
X119837000Y-74849925D01*
X119868242Y-74692858D01*
X119929529Y-74544899D01*
X120018499Y-74411745D01*
X120131745Y-74298499D01*
X120264899Y-74209529D01*
X120412858Y-74148242D01*
X120569925Y-74117000D01*
X120730075Y-74117000D01*
X120887142Y-74148242D01*
X120887142Y-74148242D01*
G37*
G36*
X138663642Y-74159781D02*
G01*
X138809414Y-74220162D01*
X138809416Y-74220163D01*
X138940608Y-74307822D01*
X139052178Y-74419392D01*
X139096350Y-74485501D01*
X139139838Y-74550586D01*
X139200219Y-74696358D01*
X139231000Y-74851107D01*
X139231000Y-75008893D01*
X139200219Y-75163642D01*
X139139838Y-75309414D01*
X139139837Y-75309416D01*
X139052178Y-75440608D01*
X138940608Y-75552178D01*
X138809416Y-75639837D01*
X138809415Y-75639838D01*
X138809414Y-75639838D01*
X138663642Y-75700219D01*
X138508893Y-75731000D01*
X138351107Y-75731000D01*
X138196358Y-75700219D01*
X138050586Y-75639838D01*
X138050585Y-75639838D01*
X138050584Y-75639837D01*
X137919392Y-75552178D01*
X137807822Y-75440608D01*
X137720163Y-75309416D01*
X137720162Y-75309414D01*
X137659781Y-75163642D01*
X137629000Y-75008893D01*
X137629000Y-74851107D01*
X137659781Y-74696358D01*
X137720162Y-74550586D01*
X137763650Y-74485501D01*
X137807822Y-74419392D01*
X137919392Y-74307822D01*
X138050584Y-74220163D01*
X138050586Y-74220162D01*
X138196358Y-74159781D01*
X138351107Y-74129000D01*
X138508893Y-74129000D01*
X138663642Y-74159781D01*
X138663642Y-74159781D01*
G37*
G36*
X153903642Y-74159781D02*
G01*
X154049414Y-74220162D01*
X154049416Y-74220163D01*
X154180608Y-74307822D01*
X154292178Y-74419392D01*
X154336350Y-74485501D01*
X154379838Y-74550586D01*
X154440219Y-74696358D01*
X154471000Y-74851107D01*
X154471000Y-75008893D01*
X154440219Y-75163642D01*
X154379838Y-75309414D01*
X154379837Y-75309416D01*
X154292178Y-75440608D01*
X154180608Y-75552178D01*
X154049416Y-75639837D01*
X154049415Y-75639838D01*
X154049414Y-75639838D01*
X153903642Y-75700219D01*
X153748893Y-75731000D01*
X153591107Y-75731000D01*
X153436358Y-75700219D01*
X153290586Y-75639838D01*
X153290585Y-75639838D01*
X153290584Y-75639837D01*
X153159392Y-75552178D01*
X153047822Y-75440608D01*
X152960163Y-75309416D01*
X152960162Y-75309414D01*
X152899781Y-75163642D01*
X152869000Y-75008893D01*
X152869000Y-74851107D01*
X152899781Y-74696358D01*
X152960162Y-74550586D01*
X153003650Y-74485501D01*
X153047822Y-74419392D01*
X153159392Y-74307822D01*
X153290584Y-74220163D01*
X153290586Y-74220162D01*
X153436358Y-74159781D01*
X153591107Y-74129000D01*
X153748893Y-74129000D01*
X153903642Y-74159781D01*
X153903642Y-74159781D01*
G37*
G36*
X125310659Y-73784394D02*
G01*
X125444758Y-73825073D01*
X125568345Y-73891132D01*
X125676670Y-73980031D01*
X125765569Y-74088356D01*
X125831628Y-74211943D01*
X125872307Y-74346042D01*
X125886042Y-74485501D01*
X125872307Y-74624960D01*
X125831628Y-74759059D01*
X125765569Y-74882646D01*
X125676670Y-74990971D01*
X125568345Y-75079870D01*
X125444758Y-75145929D01*
X125310659Y-75186608D01*
X125206149Y-75196901D01*
X123815451Y-75196901D01*
X123710941Y-75186608D01*
X123576842Y-75145929D01*
X123453255Y-75079870D01*
X123344930Y-74990971D01*
X123256031Y-74882646D01*
X123189972Y-74759059D01*
X123149293Y-74624960D01*
X123135558Y-74485501D01*
X123149293Y-74346042D01*
X123189972Y-74211943D01*
X123256031Y-74088356D01*
X123344930Y-73980031D01*
X123453255Y-73891132D01*
X123576842Y-73825073D01*
X123710941Y-73784394D01*
X123815451Y-73774101D01*
X125206149Y-73774101D01*
X125310659Y-73784394D01*
X125310659Y-73784394D01*
G37*
G36*
X132930659Y-73784394D02*
G01*
X133064758Y-73825073D01*
X133188345Y-73891132D01*
X133296670Y-73980031D01*
X133385569Y-74088356D01*
X133451628Y-74211943D01*
X133492307Y-74346042D01*
X133506042Y-74485501D01*
X133492307Y-74624960D01*
X133451628Y-74759059D01*
X133385569Y-74882646D01*
X133296670Y-74990971D01*
X133188345Y-75079870D01*
X133064758Y-75145929D01*
X132930659Y-75186608D01*
X132826149Y-75196901D01*
X131435451Y-75196901D01*
X131330941Y-75186608D01*
X131196842Y-75145929D01*
X131073255Y-75079870D01*
X130964930Y-74990971D01*
X130876031Y-74882646D01*
X130809972Y-74759059D01*
X130769293Y-74624960D01*
X130755558Y-74485501D01*
X130769293Y-74346042D01*
X130809972Y-74211943D01*
X130876031Y-74088356D01*
X130964930Y-73980031D01*
X131073255Y-73891132D01*
X131196842Y-73825073D01*
X131330941Y-73784394D01*
X131435451Y-73774101D01*
X132826149Y-73774101D01*
X132930659Y-73784394D01*
X132930659Y-73784394D01*
G37*
G36*
X120887142Y-71608242D02*
G01*
X121035101Y-71669529D01*
X121168255Y-71758499D01*
X121281501Y-71871745D01*
X121370471Y-72004899D01*
X121431758Y-72152858D01*
X121463000Y-72309925D01*
X121463000Y-72470075D01*
X121431758Y-72627142D01*
X121370471Y-72775101D01*
X121281501Y-72908255D01*
X121168255Y-73021501D01*
X121035101Y-73110471D01*
X120887142Y-73171758D01*
X120730075Y-73203000D01*
X120569925Y-73203000D01*
X120412858Y-73171758D01*
X120264899Y-73110471D01*
X120131745Y-73021501D01*
X120018499Y-72908255D01*
X119929529Y-72775101D01*
X119868242Y-72627142D01*
X119837000Y-72470075D01*
X119837000Y-72309925D01*
X119868242Y-72152858D01*
X119929529Y-72004899D01*
X120018499Y-71871745D01*
X120131745Y-71758499D01*
X120264899Y-71669529D01*
X120412858Y-71608242D01*
X120569925Y-71577000D01*
X120730075Y-71577000D01*
X120887142Y-71608242D01*
X120887142Y-71608242D01*
G37*
G36*
X110727142Y-71608242D02*
G01*
X110875101Y-71669529D01*
X111008255Y-71758499D01*
X111121501Y-71871745D01*
X111210471Y-72004899D01*
X111271758Y-72152858D01*
X111303000Y-72309925D01*
X111303000Y-72470075D01*
X111271758Y-72627142D01*
X111210471Y-72775101D01*
X111121501Y-72908255D01*
X111008255Y-73021501D01*
X110875101Y-73110471D01*
X110727142Y-73171758D01*
X110570075Y-73203000D01*
X110409925Y-73203000D01*
X110252858Y-73171758D01*
X110104899Y-73110471D01*
X109971745Y-73021501D01*
X109858499Y-72908255D01*
X109769529Y-72775101D01*
X109708242Y-72627142D01*
X109677000Y-72470075D01*
X109677000Y-72309925D01*
X109708242Y-72152858D01*
X109769529Y-72004899D01*
X109858499Y-71871745D01*
X109971745Y-71758499D01*
X110104899Y-71669529D01*
X110252858Y-71608242D01*
X110409925Y-71577000D01*
X110570075Y-71577000D01*
X110727142Y-71608242D01*
X110727142Y-71608242D01*
G37*
G36*
X153903642Y-71619781D02*
G01*
X154049414Y-71680162D01*
X154049416Y-71680163D01*
X154180608Y-71767822D01*
X154292178Y-71879392D01*
X154336350Y-71945501D01*
X154379838Y-72010586D01*
X154440219Y-72156358D01*
X154471000Y-72311107D01*
X154471000Y-72468893D01*
X154440219Y-72623642D01*
X154379838Y-72769414D01*
X154379837Y-72769416D01*
X154292178Y-72900608D01*
X154180608Y-73012178D01*
X154049416Y-73099837D01*
X154049415Y-73099838D01*
X154049414Y-73099838D01*
X153903642Y-73160219D01*
X153748893Y-73191000D01*
X153591107Y-73191000D01*
X153436358Y-73160219D01*
X153290586Y-73099838D01*
X153290585Y-73099838D01*
X153290584Y-73099837D01*
X153159392Y-73012178D01*
X153047822Y-72900608D01*
X152960163Y-72769416D01*
X152960162Y-72769414D01*
X152899781Y-72623642D01*
X152869000Y-72468893D01*
X152869000Y-72311107D01*
X152899781Y-72156358D01*
X152960162Y-72010586D01*
X153003650Y-71945501D01*
X153047822Y-71879392D01*
X153159392Y-71767822D01*
X153290584Y-71680163D01*
X153290586Y-71680162D01*
X153436358Y-71619781D01*
X153591107Y-71589000D01*
X153748893Y-71589000D01*
X153903642Y-71619781D01*
X153903642Y-71619781D01*
G37*
G36*
X138663642Y-71619781D02*
G01*
X138809414Y-71680162D01*
X138809416Y-71680163D01*
X138940608Y-71767822D01*
X139052178Y-71879392D01*
X139096350Y-71945501D01*
X139139838Y-72010586D01*
X139200219Y-72156358D01*
X139231000Y-72311107D01*
X139231000Y-72468893D01*
X139200219Y-72623642D01*
X139139838Y-72769414D01*
X139139837Y-72769416D01*
X139052178Y-72900608D01*
X138940608Y-73012178D01*
X138809416Y-73099837D01*
X138809415Y-73099838D01*
X138809414Y-73099838D01*
X138663642Y-73160219D01*
X138508893Y-73191000D01*
X138351107Y-73191000D01*
X138196358Y-73160219D01*
X138050586Y-73099838D01*
X138050585Y-73099838D01*
X138050584Y-73099837D01*
X137919392Y-73012178D01*
X137807822Y-72900608D01*
X137720163Y-72769416D01*
X137720162Y-72769414D01*
X137659781Y-72623642D01*
X137629000Y-72468893D01*
X137629000Y-72311107D01*
X137659781Y-72156358D01*
X137720162Y-72010586D01*
X137763650Y-71945501D01*
X137807822Y-71879392D01*
X137919392Y-71767822D01*
X138050584Y-71680163D01*
X138050586Y-71680162D01*
X138196358Y-71619781D01*
X138351107Y-71589000D01*
X138508893Y-71589000D01*
X138663642Y-71619781D01*
X138663642Y-71619781D01*
G37*
G36*
X132930659Y-71244394D02*
G01*
X133064758Y-71285073D01*
X133188345Y-71351132D01*
X133296670Y-71440031D01*
X133385569Y-71548356D01*
X133451628Y-71671943D01*
X133492307Y-71806042D01*
X133506042Y-71945501D01*
X133492307Y-72084960D01*
X133451628Y-72219059D01*
X133385569Y-72342646D01*
X133296670Y-72450971D01*
X133188345Y-72539870D01*
X133064758Y-72605929D01*
X132930659Y-72646608D01*
X132826149Y-72656901D01*
X131435451Y-72656901D01*
X131330941Y-72646608D01*
X131196842Y-72605929D01*
X131073255Y-72539870D01*
X130964930Y-72450971D01*
X130876031Y-72342646D01*
X130809972Y-72219059D01*
X130769293Y-72084960D01*
X130755558Y-71945501D01*
X130769293Y-71806042D01*
X130809972Y-71671943D01*
X130876031Y-71548356D01*
X130964930Y-71440031D01*
X131073255Y-71351132D01*
X131196842Y-71285073D01*
X131330941Y-71244394D01*
X131435451Y-71234101D01*
X132826149Y-71234101D01*
X132930659Y-71244394D01*
X132930659Y-71244394D01*
G37*
G36*
X125310659Y-71244394D02*
G01*
X125444758Y-71285073D01*
X125568345Y-71351132D01*
X125676670Y-71440031D01*
X125765569Y-71548356D01*
X125831628Y-71671943D01*
X125872307Y-71806042D01*
X125886042Y-71945501D01*
X125872307Y-72084960D01*
X125831628Y-72219059D01*
X125765569Y-72342646D01*
X125676670Y-72450971D01*
X125568345Y-72539870D01*
X125444758Y-72605929D01*
X125310659Y-72646608D01*
X125206149Y-72656901D01*
X123815451Y-72656901D01*
X123710941Y-72646608D01*
X123576842Y-72605929D01*
X123453255Y-72539870D01*
X123344930Y-72450971D01*
X123256031Y-72342646D01*
X123189972Y-72219059D01*
X123149293Y-72084960D01*
X123135558Y-71945501D01*
X123149293Y-71806042D01*
X123189972Y-71671943D01*
X123256031Y-71548356D01*
X123344930Y-71440031D01*
X123453255Y-71351132D01*
X123576842Y-71285073D01*
X123710941Y-71244394D01*
X123815451Y-71234101D01*
X125206149Y-71234101D01*
X125310659Y-71244394D01*
X125310659Y-71244394D01*
G37*
G36*
X164078228Y-70301703D02*
G01*
X164233100Y-70365853D01*
X164372481Y-70458985D01*
X164491015Y-70577519D01*
X164584147Y-70716900D01*
X164648297Y-70871772D01*
X164681000Y-71036184D01*
X164681000Y-71203816D01*
X164648297Y-71368228D01*
X164584147Y-71523100D01*
X164491015Y-71662481D01*
X164372481Y-71781015D01*
X164233100Y-71874147D01*
X164078228Y-71938297D01*
X163913816Y-71971000D01*
X163746184Y-71971000D01*
X163581772Y-71938297D01*
X163426900Y-71874147D01*
X163287519Y-71781015D01*
X163168985Y-71662481D01*
X163075853Y-71523100D01*
X163011703Y-71368228D01*
X162979000Y-71203816D01*
X162979000Y-71036184D01*
X163011703Y-70871772D01*
X163075853Y-70716900D01*
X163168985Y-70577519D01*
X163287519Y-70458985D01*
X163426900Y-70365853D01*
X163581772Y-70301703D01*
X163746184Y-70269000D01*
X163913816Y-70269000D01*
X164078228Y-70301703D01*
X164078228Y-70301703D01*
G37*
G36*
X158998228Y-70301703D02*
G01*
X159153100Y-70365853D01*
X159292481Y-70458985D01*
X159411015Y-70577519D01*
X159504147Y-70716900D01*
X159568297Y-70871772D01*
X159601000Y-71036184D01*
X159601000Y-71203816D01*
X159568297Y-71368228D01*
X159504147Y-71523100D01*
X159411015Y-71662481D01*
X159292481Y-71781015D01*
X159153100Y-71874147D01*
X158998228Y-71938297D01*
X158833816Y-71971000D01*
X158666184Y-71971000D01*
X158501772Y-71938297D01*
X158346900Y-71874147D01*
X158207519Y-71781015D01*
X158088985Y-71662481D01*
X157995853Y-71523100D01*
X157931703Y-71368228D01*
X157899000Y-71203816D01*
X157899000Y-71036184D01*
X157931703Y-70871772D01*
X157995853Y-70716900D01*
X158088985Y-70577519D01*
X158207519Y-70458985D01*
X158346900Y-70365853D01*
X158501772Y-70301703D01*
X158666184Y-70269000D01*
X158833816Y-70269000D01*
X158998228Y-70301703D01*
X158998228Y-70301703D01*
G37*
G36*
X153903642Y-69079781D02*
G01*
X154049414Y-69140162D01*
X154049416Y-69140163D01*
X154180608Y-69227822D01*
X154292178Y-69339392D01*
X154336350Y-69405501D01*
X154379838Y-69470586D01*
X154440219Y-69616358D01*
X154471000Y-69771107D01*
X154471000Y-69928893D01*
X154440219Y-70083642D01*
X154379838Y-70229414D01*
X154379837Y-70229416D01*
X154292178Y-70360608D01*
X154180608Y-70472178D01*
X154049416Y-70559837D01*
X154049415Y-70559838D01*
X154049414Y-70559838D01*
X153903642Y-70620219D01*
X153748893Y-70651000D01*
X153591107Y-70651000D01*
X153436358Y-70620219D01*
X153290586Y-70559838D01*
X153290585Y-70559838D01*
X153290584Y-70559837D01*
X153159392Y-70472178D01*
X153047822Y-70360608D01*
X152960163Y-70229416D01*
X152960162Y-70229414D01*
X152899781Y-70083642D01*
X152869000Y-69928893D01*
X152869000Y-69771107D01*
X152899781Y-69616358D01*
X152960162Y-69470586D01*
X153003650Y-69405501D01*
X153047822Y-69339392D01*
X153159392Y-69227822D01*
X153290584Y-69140163D01*
X153290586Y-69140162D01*
X153436358Y-69079781D01*
X153591107Y-69049000D01*
X153748893Y-69049000D01*
X153903642Y-69079781D01*
X153903642Y-69079781D01*
G37*
G36*
X138663642Y-69079781D02*
G01*
X138809414Y-69140162D01*
X138809416Y-69140163D01*
X138940608Y-69227822D01*
X139052178Y-69339392D01*
X139096350Y-69405501D01*
X139139838Y-69470586D01*
X139200219Y-69616358D01*
X139231000Y-69771107D01*
X139231000Y-69928893D01*
X139200219Y-70083642D01*
X139139838Y-70229414D01*
X139139837Y-70229416D01*
X139052178Y-70360608D01*
X138940608Y-70472178D01*
X138809416Y-70559837D01*
X138809415Y-70559838D01*
X138809414Y-70559838D01*
X138663642Y-70620219D01*
X138508893Y-70651000D01*
X138351107Y-70651000D01*
X138196358Y-70620219D01*
X138050586Y-70559838D01*
X138050585Y-70559838D01*
X138050584Y-70559837D01*
X137919392Y-70472178D01*
X137807822Y-70360608D01*
X137720163Y-70229416D01*
X137720162Y-70229414D01*
X137659781Y-70083642D01*
X137629000Y-69928893D01*
X137629000Y-69771107D01*
X137659781Y-69616358D01*
X137720162Y-69470586D01*
X137763650Y-69405501D01*
X137807822Y-69339392D01*
X137919392Y-69227822D01*
X138050584Y-69140163D01*
X138050586Y-69140162D01*
X138196358Y-69079781D01*
X138351107Y-69049000D01*
X138508893Y-69049000D01*
X138663642Y-69079781D01*
X138663642Y-69079781D01*
G37*
G36*
X125310659Y-68704394D02*
G01*
X125444758Y-68745073D01*
X125568345Y-68811132D01*
X125676670Y-68900031D01*
X125765569Y-69008356D01*
X125831628Y-69131943D01*
X125872307Y-69266042D01*
X125886042Y-69405501D01*
X125872307Y-69544960D01*
X125831628Y-69679059D01*
X125765569Y-69802646D01*
X125676670Y-69910971D01*
X125568345Y-69999870D01*
X125444758Y-70065929D01*
X125310659Y-70106608D01*
X125206149Y-70116901D01*
X123815451Y-70116901D01*
X123710941Y-70106608D01*
X123576842Y-70065929D01*
X123453255Y-69999870D01*
X123344930Y-69910971D01*
X123256031Y-69802646D01*
X123189972Y-69679059D01*
X123149293Y-69544960D01*
X123135558Y-69405501D01*
X123149293Y-69266042D01*
X123189972Y-69131943D01*
X123256031Y-69008356D01*
X123344930Y-68900031D01*
X123453255Y-68811132D01*
X123576842Y-68745073D01*
X123710941Y-68704394D01*
X123815451Y-68694101D01*
X125206149Y-68694101D01*
X125310659Y-68704394D01*
X125310659Y-68704394D01*
G37*
G36*
X132930659Y-68704394D02*
G01*
X133064758Y-68745073D01*
X133188345Y-68811132D01*
X133296670Y-68900031D01*
X133385569Y-69008356D01*
X133451628Y-69131943D01*
X133492307Y-69266042D01*
X133506042Y-69405501D01*
X133492307Y-69544960D01*
X133451628Y-69679059D01*
X133385569Y-69802646D01*
X133296670Y-69910971D01*
X133188345Y-69999870D01*
X133064758Y-70065929D01*
X132930659Y-70106608D01*
X132826149Y-70116901D01*
X131435451Y-70116901D01*
X131330941Y-70106608D01*
X131196842Y-70065929D01*
X131073255Y-69999870D01*
X130964930Y-69910971D01*
X130876031Y-69802646D01*
X130809972Y-69679059D01*
X130769293Y-69544960D01*
X130755558Y-69405501D01*
X130769293Y-69266042D01*
X130809972Y-69131943D01*
X130876031Y-69008356D01*
X130964930Y-68900031D01*
X131073255Y-68811132D01*
X131196842Y-68745073D01*
X131330941Y-68704394D01*
X131435451Y-68694101D01*
X132826149Y-68694101D01*
X132930659Y-68704394D01*
X132930659Y-68704394D01*
G37*
G36*
X153903642Y-66539781D02*
G01*
X154049414Y-66600162D01*
X154049416Y-66600163D01*
X154180608Y-66687822D01*
X154292178Y-66799392D01*
X154379837Y-66930584D01*
X154379838Y-66930586D01*
X154440219Y-67076358D01*
X154471000Y-67231107D01*
X154471000Y-67388893D01*
X154440219Y-67543642D01*
X154379838Y-67689414D01*
X154379837Y-67689416D01*
X154292178Y-67820608D01*
X154180608Y-67932178D01*
X154049416Y-68019837D01*
X154049415Y-68019838D01*
X154049414Y-68019838D01*
X153903642Y-68080219D01*
X153748893Y-68111000D01*
X153591107Y-68111000D01*
X153436358Y-68080219D01*
X153290586Y-68019838D01*
X153290585Y-68019838D01*
X153290584Y-68019837D01*
X153159392Y-67932178D01*
X153047822Y-67820608D01*
X152960163Y-67689416D01*
X152960162Y-67689414D01*
X152899781Y-67543642D01*
X152869000Y-67388893D01*
X152869000Y-67231107D01*
X152899781Y-67076358D01*
X152960162Y-66930586D01*
X152960163Y-66930584D01*
X153047822Y-66799392D01*
X153159392Y-66687822D01*
X153290584Y-66600163D01*
X153290586Y-66600162D01*
X153436358Y-66539781D01*
X153591107Y-66509000D01*
X153748893Y-66509000D01*
X153903642Y-66539781D01*
X153903642Y-66539781D01*
G37*
G36*
X138663642Y-66539781D02*
G01*
X138809414Y-66600162D01*
X138809416Y-66600163D01*
X138940608Y-66687822D01*
X139052178Y-66799392D01*
X139139837Y-66930584D01*
X139139838Y-66930586D01*
X139200219Y-67076358D01*
X139231000Y-67231107D01*
X139231000Y-67388893D01*
X139200219Y-67543642D01*
X139139838Y-67689414D01*
X139139837Y-67689416D01*
X139052178Y-67820608D01*
X138940608Y-67932178D01*
X138809416Y-68019837D01*
X138809415Y-68019838D01*
X138809414Y-68019838D01*
X138663642Y-68080219D01*
X138508893Y-68111000D01*
X138351107Y-68111000D01*
X138196358Y-68080219D01*
X138050586Y-68019838D01*
X138050585Y-68019838D01*
X138050584Y-68019837D01*
X137919392Y-67932178D01*
X137807822Y-67820608D01*
X137720163Y-67689416D01*
X137720162Y-67689414D01*
X137659781Y-67543642D01*
X137629000Y-67388893D01*
X137629000Y-67231107D01*
X137659781Y-67076358D01*
X137720162Y-66930586D01*
X137720163Y-66930584D01*
X137807822Y-66799392D01*
X137919392Y-66687822D01*
X138050584Y-66600163D01*
X138050586Y-66600162D01*
X138196358Y-66539781D01*
X138351107Y-66509000D01*
X138508893Y-66509000D01*
X138663642Y-66539781D01*
X138663642Y-66539781D01*
G37*
G36*
X125310659Y-66164394D02*
G01*
X125444758Y-66205073D01*
X125568345Y-66271132D01*
X125676670Y-66360031D01*
X125765569Y-66468356D01*
X125831628Y-66591943D01*
X125872307Y-66726042D01*
X125886042Y-66865501D01*
X125872307Y-67004960D01*
X125831628Y-67139059D01*
X125765569Y-67262646D01*
X125676670Y-67370971D01*
X125568345Y-67459870D01*
X125444758Y-67525929D01*
X125310659Y-67566608D01*
X125206149Y-67576901D01*
X123815451Y-67576901D01*
X123710941Y-67566608D01*
X123576842Y-67525929D01*
X123453255Y-67459870D01*
X123344930Y-67370971D01*
X123256031Y-67262646D01*
X123189972Y-67139059D01*
X123149293Y-67004960D01*
X123135558Y-66865501D01*
X123149293Y-66726042D01*
X123189972Y-66591943D01*
X123256031Y-66468356D01*
X123344930Y-66360031D01*
X123453255Y-66271132D01*
X123576842Y-66205073D01*
X123710941Y-66164394D01*
X123815451Y-66154101D01*
X125206149Y-66154101D01*
X125310659Y-66164394D01*
X125310659Y-66164394D01*
G37*
G36*
X132930659Y-66164394D02*
G01*
X133064758Y-66205073D01*
X133188345Y-66271132D01*
X133296670Y-66360031D01*
X133385569Y-66468356D01*
X133451628Y-66591943D01*
X133492307Y-66726042D01*
X133506042Y-66865501D01*
X133492307Y-67004960D01*
X133451628Y-67139059D01*
X133385569Y-67262646D01*
X133296670Y-67370971D01*
X133188345Y-67459870D01*
X133064758Y-67525929D01*
X132930659Y-67566608D01*
X132826149Y-67576901D01*
X131435451Y-67576901D01*
X131330941Y-67566608D01*
X131196842Y-67525929D01*
X131073255Y-67459870D01*
X130964930Y-67370971D01*
X130876031Y-67262646D01*
X130809972Y-67139059D01*
X130769293Y-67004960D01*
X130755558Y-66865501D01*
X130769293Y-66726042D01*
X130809972Y-66591943D01*
X130876031Y-66468356D01*
X130964930Y-66360031D01*
X131073255Y-66271132D01*
X131196842Y-66205073D01*
X131330941Y-66164394D01*
X131435451Y-66154101D01*
X132826149Y-66154101D01*
X132930659Y-66164394D01*
X132930659Y-66164394D01*
G37*
G36*
X119490442Y-65145518D02*
G01*
X119556627Y-65152037D01*
X119726466Y-65203557D01*
X119882991Y-65287222D01*
X119918729Y-65316552D01*
X120020186Y-65399814D01*
X120085858Y-65479837D01*
X120132778Y-65537009D01*
X120216443Y-65693534D01*
X120267963Y-65863373D01*
X120285359Y-66040000D01*
X120267963Y-66216627D01*
X120216443Y-66386466D01*
X120132778Y-66542991D01*
X120103448Y-66578729D01*
X120020186Y-66680186D01*
X119918729Y-66763448D01*
X119882991Y-66792778D01*
X119726466Y-66876443D01*
X119556627Y-66927963D01*
X119490442Y-66934482D01*
X119424260Y-66941000D01*
X119335740Y-66941000D01*
X119269558Y-66934482D01*
X119203373Y-66927963D01*
X119033534Y-66876443D01*
X118877009Y-66792778D01*
X118841271Y-66763448D01*
X118739814Y-66680186D01*
X118656552Y-66578729D01*
X118627222Y-66542991D01*
X118543557Y-66386466D01*
X118492037Y-66216627D01*
X118474641Y-66040000D01*
X118492037Y-65863373D01*
X118543557Y-65693534D01*
X118627222Y-65537009D01*
X118674142Y-65479837D01*
X118739814Y-65399814D01*
X118841271Y-65316552D01*
X118877009Y-65287222D01*
X119033534Y-65203557D01*
X119203373Y-65152037D01*
X119269558Y-65145518D01*
X119335740Y-65139000D01*
X119424260Y-65139000D01*
X119490442Y-65145518D01*
X119490442Y-65145518D01*
G37*
G36*
X153903642Y-63999781D02*
G01*
X154049414Y-64060162D01*
X154049416Y-64060163D01*
X154180608Y-64147822D01*
X154292178Y-64259392D01*
X154379837Y-64390584D01*
X154379838Y-64390586D01*
X154440219Y-64536358D01*
X154471000Y-64691107D01*
X154471000Y-64848893D01*
X154440219Y-65003642D01*
X154379838Y-65149414D01*
X154379837Y-65149416D01*
X154292178Y-65280608D01*
X154180608Y-65392178D01*
X154049416Y-65479837D01*
X154049415Y-65479838D01*
X154049414Y-65479838D01*
X153903642Y-65540219D01*
X153748893Y-65571000D01*
X153591107Y-65571000D01*
X153436358Y-65540219D01*
X153290586Y-65479838D01*
X153290585Y-65479838D01*
X153290584Y-65479837D01*
X153159392Y-65392178D01*
X153047822Y-65280608D01*
X152960163Y-65149416D01*
X152960162Y-65149414D01*
X152899781Y-65003642D01*
X152869000Y-64848893D01*
X152869000Y-64691107D01*
X152899781Y-64536358D01*
X152960162Y-64390586D01*
X152960163Y-64390584D01*
X153047822Y-64259392D01*
X153159392Y-64147822D01*
X153290584Y-64060163D01*
X153290586Y-64060162D01*
X153436358Y-63999781D01*
X153591107Y-63969000D01*
X153748893Y-63969000D01*
X153903642Y-63999781D01*
X153903642Y-63999781D01*
G37*
G36*
X138663642Y-63999781D02*
G01*
X138809414Y-64060162D01*
X138809416Y-64060163D01*
X138940608Y-64147822D01*
X139052178Y-64259392D01*
X139139837Y-64390584D01*
X139139838Y-64390586D01*
X139200219Y-64536358D01*
X139231000Y-64691107D01*
X139231000Y-64848893D01*
X139200219Y-65003642D01*
X139139838Y-65149414D01*
X139139837Y-65149416D01*
X139052178Y-65280608D01*
X138940608Y-65392178D01*
X138809416Y-65479837D01*
X138809415Y-65479838D01*
X138809414Y-65479838D01*
X138663642Y-65540219D01*
X138508893Y-65571000D01*
X138351107Y-65571000D01*
X138196358Y-65540219D01*
X138050586Y-65479838D01*
X138050585Y-65479838D01*
X138050584Y-65479837D01*
X137919392Y-65392178D01*
X137807822Y-65280608D01*
X137720163Y-65149416D01*
X137720162Y-65149414D01*
X137659781Y-65003642D01*
X137629000Y-64848893D01*
X137629000Y-64691107D01*
X137659781Y-64536358D01*
X137720162Y-64390586D01*
X137720163Y-64390584D01*
X137807822Y-64259392D01*
X137919392Y-64147822D01*
X138050584Y-64060163D01*
X138050586Y-64060162D01*
X138196358Y-63999781D01*
X138351107Y-63969000D01*
X138508893Y-63969000D01*
X138663642Y-63999781D01*
X138663642Y-63999781D01*
G37*
G36*
X132930659Y-63624394D02*
G01*
X133064758Y-63665073D01*
X133188345Y-63731132D01*
X133296670Y-63820031D01*
X133385569Y-63928356D01*
X133451628Y-64051943D01*
X133492307Y-64186042D01*
X133506042Y-64325501D01*
X133492307Y-64464960D01*
X133451628Y-64599059D01*
X133385569Y-64722646D01*
X133296670Y-64830971D01*
X133188345Y-64919870D01*
X133064758Y-64985929D01*
X132930659Y-65026608D01*
X132826149Y-65036901D01*
X131435451Y-65036901D01*
X131330941Y-65026608D01*
X131196842Y-64985929D01*
X131073255Y-64919870D01*
X130964930Y-64830971D01*
X130876031Y-64722646D01*
X130809972Y-64599059D01*
X130769293Y-64464960D01*
X130755558Y-64325501D01*
X130769293Y-64186042D01*
X130809972Y-64051943D01*
X130876031Y-63928356D01*
X130964930Y-63820031D01*
X131073255Y-63731132D01*
X131196842Y-63665073D01*
X131330941Y-63624394D01*
X131435451Y-63614101D01*
X132826149Y-63614101D01*
X132930659Y-63624394D01*
X132930659Y-63624394D01*
G37*
G36*
X125310659Y-63624394D02*
G01*
X125444758Y-63665073D01*
X125568345Y-63731132D01*
X125676670Y-63820031D01*
X125765569Y-63928356D01*
X125831628Y-64051943D01*
X125872307Y-64186042D01*
X125886042Y-64325501D01*
X125872307Y-64464960D01*
X125831628Y-64599059D01*
X125765569Y-64722646D01*
X125676670Y-64830971D01*
X125568345Y-64919870D01*
X125444758Y-64985929D01*
X125310659Y-65026608D01*
X125206149Y-65036901D01*
X123815451Y-65036901D01*
X123710941Y-65026608D01*
X123576842Y-64985929D01*
X123453255Y-64919870D01*
X123344930Y-64830971D01*
X123256031Y-64722646D01*
X123189972Y-64599059D01*
X123149293Y-64464960D01*
X123135558Y-64325501D01*
X123149293Y-64186042D01*
X123189972Y-64051943D01*
X123256031Y-63928356D01*
X123344930Y-63820031D01*
X123453255Y-63731132D01*
X123576842Y-63665073D01*
X123710941Y-63624394D01*
X123815451Y-63614101D01*
X125206149Y-63614101D01*
X125310659Y-63624394D01*
X125310659Y-63624394D01*
G37*
G36*
X119490442Y-62605518D02*
G01*
X119556627Y-62612037D01*
X119726466Y-62663557D01*
X119882991Y-62747222D01*
X119918729Y-62776552D01*
X120020186Y-62859814D01*
X120085858Y-62939837D01*
X120132778Y-62997009D01*
X120216443Y-63153534D01*
X120267963Y-63323373D01*
X120285359Y-63500000D01*
X120267963Y-63676627D01*
X120216443Y-63846466D01*
X120132778Y-64002991D01*
X120103448Y-64038729D01*
X120020186Y-64140186D01*
X119918729Y-64223448D01*
X119882991Y-64252778D01*
X119726466Y-64336443D01*
X119556627Y-64387963D01*
X119490442Y-64394482D01*
X119424260Y-64401000D01*
X119335740Y-64401000D01*
X119269558Y-64394482D01*
X119203373Y-64387963D01*
X119033534Y-64336443D01*
X118877009Y-64252778D01*
X118841271Y-64223448D01*
X118739814Y-64140186D01*
X118656552Y-64038729D01*
X118627222Y-64002991D01*
X118543557Y-63846466D01*
X118492037Y-63676627D01*
X118474641Y-63500000D01*
X118492037Y-63323373D01*
X118543557Y-63153534D01*
X118627222Y-62997009D01*
X118674142Y-62939837D01*
X118739814Y-62859814D01*
X118841271Y-62776552D01*
X118877009Y-62747222D01*
X119033534Y-62663557D01*
X119203373Y-62612037D01*
X119269558Y-62605518D01*
X119335740Y-62599000D01*
X119424260Y-62599000D01*
X119490442Y-62605518D01*
X119490442Y-62605518D01*
G37*
G36*
X153903642Y-61459781D02*
G01*
X154049414Y-61520162D01*
X154049416Y-61520163D01*
X154180608Y-61607822D01*
X154292178Y-61719392D01*
X154379837Y-61850584D01*
X154379838Y-61850586D01*
X154440219Y-61996358D01*
X154471000Y-62151107D01*
X154471000Y-62308893D01*
X154440219Y-62463642D01*
X154379838Y-62609414D01*
X154379837Y-62609416D01*
X154292178Y-62740608D01*
X154180608Y-62852178D01*
X154049416Y-62939837D01*
X154049415Y-62939838D01*
X154049414Y-62939838D01*
X153903642Y-63000219D01*
X153748893Y-63031000D01*
X153591107Y-63031000D01*
X153436358Y-63000219D01*
X153290586Y-62939838D01*
X153290585Y-62939838D01*
X153290584Y-62939837D01*
X153159392Y-62852178D01*
X153047822Y-62740608D01*
X152960163Y-62609416D01*
X152960162Y-62609414D01*
X152899781Y-62463642D01*
X152869000Y-62308893D01*
X152869000Y-62151107D01*
X152899781Y-61996358D01*
X152960162Y-61850586D01*
X152960163Y-61850584D01*
X153047822Y-61719392D01*
X153159392Y-61607822D01*
X153290584Y-61520163D01*
X153290586Y-61520162D01*
X153436358Y-61459781D01*
X153591107Y-61429000D01*
X153748893Y-61429000D01*
X153903642Y-61459781D01*
X153903642Y-61459781D01*
G37*
G36*
X139231000Y-63031000D02*
G01*
X137629000Y-63031000D01*
X137629000Y-61429000D01*
X139231000Y-61429000D01*
X139231000Y-63031000D01*
X139231000Y-63031000D01*
G37*
G36*
X125310659Y-61084394D02*
G01*
X125444758Y-61125073D01*
X125568345Y-61191132D01*
X125676670Y-61280031D01*
X125765569Y-61388356D01*
X125831628Y-61511943D01*
X125872307Y-61646042D01*
X125886042Y-61785501D01*
X125872307Y-61924960D01*
X125831628Y-62059059D01*
X125765569Y-62182646D01*
X125676670Y-62290971D01*
X125568345Y-62379870D01*
X125444758Y-62445929D01*
X125310659Y-62486608D01*
X125206149Y-62496901D01*
X123815451Y-62496901D01*
X123710941Y-62486608D01*
X123576842Y-62445929D01*
X123453255Y-62379870D01*
X123344930Y-62290971D01*
X123256031Y-62182646D01*
X123189972Y-62059059D01*
X123149293Y-61924960D01*
X123135558Y-61785501D01*
X123149293Y-61646042D01*
X123189972Y-61511943D01*
X123256031Y-61388356D01*
X123344930Y-61280031D01*
X123453255Y-61191132D01*
X123576842Y-61125073D01*
X123710941Y-61084394D01*
X123815451Y-61074101D01*
X125206149Y-61074101D01*
X125310659Y-61084394D01*
X125310659Y-61084394D01*
G37*
G36*
X132930659Y-61084394D02*
G01*
X133064758Y-61125073D01*
X133188345Y-61191132D01*
X133296670Y-61280031D01*
X133385569Y-61388356D01*
X133451628Y-61511943D01*
X133492307Y-61646042D01*
X133506042Y-61785501D01*
X133492307Y-61924960D01*
X133451628Y-62059059D01*
X133385569Y-62182646D01*
X133296670Y-62290971D01*
X133188345Y-62379870D01*
X133064758Y-62445929D01*
X132930659Y-62486608D01*
X132826149Y-62496901D01*
X131435451Y-62496901D01*
X131330941Y-62486608D01*
X131196842Y-62445929D01*
X131073255Y-62379870D01*
X130964930Y-62290971D01*
X130876031Y-62182646D01*
X130809972Y-62059059D01*
X130769293Y-61924960D01*
X130755558Y-61785501D01*
X130769293Y-61646042D01*
X130809972Y-61511943D01*
X130876031Y-61388356D01*
X130964930Y-61280031D01*
X131073255Y-61191132D01*
X131196842Y-61125073D01*
X131330941Y-61084394D01*
X131435451Y-61074101D01*
X132826149Y-61074101D01*
X132930659Y-61084394D01*
X132930659Y-61084394D01*
G37*
G36*
X119490442Y-60065518D02*
G01*
X119556627Y-60072037D01*
X119726466Y-60123557D01*
X119882991Y-60207222D01*
X119918729Y-60236552D01*
X120020186Y-60319814D01*
X120103448Y-60421271D01*
X120132778Y-60457009D01*
X120216443Y-60613534D01*
X120267963Y-60783373D01*
X120285359Y-60960000D01*
X120267963Y-61136627D01*
X120216443Y-61306466D01*
X120132778Y-61462991D01*
X120103448Y-61498729D01*
X120020186Y-61600186D01*
X119918729Y-61683448D01*
X119882991Y-61712778D01*
X119726466Y-61796443D01*
X119556627Y-61847963D01*
X119490443Y-61854481D01*
X119424260Y-61861000D01*
X119335740Y-61861000D01*
X119269557Y-61854481D01*
X119203373Y-61847963D01*
X119033534Y-61796443D01*
X118877009Y-61712778D01*
X118841271Y-61683448D01*
X118739814Y-61600186D01*
X118656552Y-61498729D01*
X118627222Y-61462991D01*
X118543557Y-61306466D01*
X118492037Y-61136627D01*
X118474641Y-60960000D01*
X118492037Y-60783373D01*
X118543557Y-60613534D01*
X118627222Y-60457009D01*
X118656552Y-60421271D01*
X118739814Y-60319814D01*
X118841271Y-60236552D01*
X118877009Y-60207222D01*
X119033534Y-60123557D01*
X119203373Y-60072037D01*
X119269558Y-60065518D01*
X119335740Y-60059000D01*
X119424260Y-60059000D01*
X119490442Y-60065518D01*
X119490442Y-60065518D01*
G37*
G36*
X132930659Y-58544394D02*
G01*
X133064758Y-58585073D01*
X133188345Y-58651132D01*
X133296670Y-58740031D01*
X133385569Y-58848356D01*
X133451628Y-58971943D01*
X133492307Y-59106042D01*
X133506042Y-59245501D01*
X133492307Y-59384960D01*
X133451628Y-59519059D01*
X133385569Y-59642646D01*
X133296670Y-59750971D01*
X133188345Y-59839870D01*
X133064758Y-59905929D01*
X132930659Y-59946608D01*
X132826149Y-59956901D01*
X131435451Y-59956901D01*
X131330941Y-59946608D01*
X131196842Y-59905929D01*
X131073255Y-59839870D01*
X130964930Y-59750971D01*
X130876031Y-59642646D01*
X130809972Y-59519059D01*
X130769293Y-59384960D01*
X130755558Y-59245501D01*
X130769293Y-59106042D01*
X130809972Y-58971943D01*
X130876031Y-58848356D01*
X130964930Y-58740031D01*
X131073255Y-58651132D01*
X131196842Y-58585073D01*
X131330941Y-58544394D01*
X131435451Y-58534101D01*
X132826149Y-58534101D01*
X132930659Y-58544394D01*
X132930659Y-58544394D01*
G37*
G36*
X125310659Y-58544394D02*
G01*
X125444758Y-58585073D01*
X125568345Y-58651132D01*
X125676670Y-58740031D01*
X125765569Y-58848356D01*
X125831628Y-58971943D01*
X125872307Y-59106042D01*
X125886042Y-59245501D01*
X125872307Y-59384960D01*
X125831628Y-59519059D01*
X125765569Y-59642646D01*
X125676670Y-59750971D01*
X125568345Y-59839870D01*
X125444758Y-59905929D01*
X125310659Y-59946608D01*
X125206149Y-59956901D01*
X123815451Y-59956901D01*
X123710941Y-59946608D01*
X123576842Y-59905929D01*
X123453255Y-59839870D01*
X123344930Y-59750971D01*
X123256031Y-59642646D01*
X123189972Y-59519059D01*
X123149293Y-59384960D01*
X123135558Y-59245501D01*
X123149293Y-59106042D01*
X123189972Y-58971943D01*
X123256031Y-58848356D01*
X123344930Y-58740031D01*
X123453255Y-58651132D01*
X123576842Y-58585073D01*
X123710941Y-58544394D01*
X123815451Y-58534101D01*
X125206149Y-58534101D01*
X125310659Y-58544394D01*
X125310659Y-58544394D01*
G37*
G36*
X119490443Y-57525519D02*
G01*
X119556627Y-57532037D01*
X119726466Y-57583557D01*
X119882991Y-57667222D01*
X119918729Y-57696552D01*
X120020186Y-57779814D01*
X120103448Y-57881271D01*
X120132778Y-57917009D01*
X120216443Y-58073534D01*
X120267963Y-58243373D01*
X120285359Y-58420000D01*
X120267963Y-58596627D01*
X120216443Y-58766466D01*
X120132778Y-58922991D01*
X120103448Y-58958729D01*
X120020186Y-59060186D01*
X119918729Y-59143448D01*
X119882991Y-59172778D01*
X119726466Y-59256443D01*
X119556627Y-59307963D01*
X119490442Y-59314482D01*
X119424260Y-59321000D01*
X119335740Y-59321000D01*
X119269558Y-59314482D01*
X119203373Y-59307963D01*
X119033534Y-59256443D01*
X118877009Y-59172778D01*
X118841271Y-59143448D01*
X118739814Y-59060186D01*
X118656552Y-58958729D01*
X118627222Y-58922991D01*
X118543557Y-58766466D01*
X118492037Y-58596627D01*
X118474641Y-58420000D01*
X118492037Y-58243373D01*
X118543557Y-58073534D01*
X118627222Y-57917009D01*
X118656552Y-57881271D01*
X118739814Y-57779814D01*
X118841271Y-57696552D01*
X118877009Y-57667222D01*
X119033534Y-57583557D01*
X119203373Y-57532037D01*
X119269557Y-57525519D01*
X119335740Y-57519000D01*
X119424260Y-57519000D01*
X119490443Y-57525519D01*
X119490443Y-57525519D01*
G37*
G36*
X132930659Y-56004394D02*
G01*
X133064758Y-56045073D01*
X133188345Y-56111132D01*
X133296670Y-56200031D01*
X133385569Y-56308356D01*
X133451628Y-56431943D01*
X133492307Y-56566042D01*
X133506042Y-56705501D01*
X133492307Y-56844960D01*
X133451628Y-56979059D01*
X133385569Y-57102646D01*
X133296670Y-57210971D01*
X133188345Y-57299870D01*
X133064758Y-57365929D01*
X132930659Y-57406608D01*
X132826149Y-57416901D01*
X131435451Y-57416901D01*
X131330941Y-57406608D01*
X131196842Y-57365929D01*
X131073255Y-57299870D01*
X130964930Y-57210971D01*
X130876031Y-57102646D01*
X130809972Y-56979059D01*
X130769293Y-56844960D01*
X130755558Y-56705501D01*
X130769293Y-56566042D01*
X130809972Y-56431943D01*
X130876031Y-56308356D01*
X130964930Y-56200031D01*
X131073255Y-56111132D01*
X131196842Y-56045073D01*
X131330941Y-56004394D01*
X131435451Y-55994101D01*
X132826149Y-55994101D01*
X132930659Y-56004394D01*
X132930659Y-56004394D01*
G37*
G36*
X125310659Y-56004394D02*
G01*
X125444758Y-56045073D01*
X125568345Y-56111132D01*
X125676670Y-56200031D01*
X125765569Y-56308356D01*
X125831628Y-56431943D01*
X125872307Y-56566042D01*
X125886042Y-56705501D01*
X125872307Y-56844960D01*
X125831628Y-56979059D01*
X125765569Y-57102646D01*
X125676670Y-57210971D01*
X125568345Y-57299870D01*
X125444758Y-57365929D01*
X125310659Y-57406608D01*
X125206149Y-57416901D01*
X123815451Y-57416901D01*
X123710941Y-57406608D01*
X123576842Y-57365929D01*
X123453255Y-57299870D01*
X123344930Y-57210971D01*
X123256031Y-57102646D01*
X123189972Y-56979059D01*
X123149293Y-56844960D01*
X123135558Y-56705501D01*
X123149293Y-56566042D01*
X123189972Y-56431943D01*
X123256031Y-56308356D01*
X123344930Y-56200031D01*
X123453255Y-56111132D01*
X123576842Y-56045073D01*
X123710941Y-56004394D01*
X123815451Y-55994101D01*
X125206149Y-55994101D01*
X125310659Y-56004394D01*
X125310659Y-56004394D01*
G37*
G36*
X119490443Y-54985519D02*
G01*
X119556627Y-54992037D01*
X119726466Y-55043557D01*
X119726468Y-55043558D01*
X119792775Y-55079000D01*
X119882991Y-55127222D01*
X119918729Y-55156552D01*
X120020186Y-55239814D01*
X120097024Y-55333443D01*
X120132778Y-55377009D01*
X120216443Y-55533534D01*
X120267963Y-55703373D01*
X120285359Y-55880000D01*
X120267963Y-56056627D01*
X120216443Y-56226466D01*
X120132778Y-56382991D01*
X120123691Y-56394063D01*
X120020186Y-56520186D01*
X119918729Y-56603448D01*
X119882991Y-56632778D01*
X119869987Y-56639729D01*
X119787563Y-56683786D01*
X119726466Y-56716443D01*
X119556627Y-56767963D01*
X119490443Y-56774481D01*
X119424260Y-56781000D01*
X119335740Y-56781000D01*
X119269557Y-56774481D01*
X119203373Y-56767963D01*
X119033534Y-56716443D01*
X118972438Y-56683786D01*
X118890013Y-56639729D01*
X118877009Y-56632778D01*
X118841271Y-56603448D01*
X118739814Y-56520186D01*
X118636309Y-56394063D01*
X118627222Y-56382991D01*
X118543557Y-56226466D01*
X118492037Y-56056627D01*
X118474641Y-55880000D01*
X118492037Y-55703373D01*
X118543557Y-55533534D01*
X118627222Y-55377009D01*
X118662976Y-55333443D01*
X118739814Y-55239814D01*
X118841271Y-55156552D01*
X118877009Y-55127222D01*
X118967225Y-55079000D01*
X119033532Y-55043558D01*
X119033534Y-55043557D01*
X119203373Y-54992037D01*
X119269557Y-54985519D01*
X119335740Y-54979000D01*
X119424260Y-54979000D01*
X119490443Y-54985519D01*
X119490443Y-54985519D01*
G37*
G36*
X137326823Y-55041313D02*
G01*
X137487242Y-55089976D01*
X137554361Y-55125852D01*
X137635078Y-55168996D01*
X137764659Y-55275341D01*
X137871004Y-55404922D01*
X137871005Y-55404924D01*
X137950024Y-55552758D01*
X137998687Y-55713177D01*
X138015117Y-55880000D01*
X137998687Y-56046823D01*
X137972458Y-56133288D01*
X137952212Y-56200031D01*
X137950024Y-56207242D01*
X137886284Y-56326491D01*
X137871004Y-56355078D01*
X137764659Y-56484659D01*
X137635078Y-56591004D01*
X137635076Y-56591005D01*
X137487242Y-56670024D01*
X137326823Y-56718687D01*
X137201804Y-56731000D01*
X137118196Y-56731000D01*
X136993177Y-56718687D01*
X136832758Y-56670024D01*
X136684924Y-56591005D01*
X136684922Y-56591004D01*
X136555341Y-56484659D01*
X136448996Y-56355078D01*
X136433716Y-56326491D01*
X136369976Y-56207242D01*
X136367789Y-56200031D01*
X136347542Y-56133288D01*
X136321313Y-56046823D01*
X136304883Y-55880000D01*
X136321313Y-55713177D01*
X136369976Y-55552758D01*
X136448995Y-55404924D01*
X136448996Y-55404922D01*
X136555341Y-55275341D01*
X136684922Y-55168996D01*
X136765639Y-55125852D01*
X136832758Y-55089976D01*
X136993177Y-55041313D01*
X137118196Y-55029000D01*
X137201804Y-55029000D01*
X137326823Y-55041313D01*
X137326823Y-55041313D01*
G37*
G36*
X150108228Y-55061703D02*
G01*
X150263100Y-55125853D01*
X150402481Y-55218985D01*
X150521015Y-55337519D01*
X150614147Y-55476900D01*
X150678297Y-55631772D01*
X150711000Y-55796184D01*
X150711000Y-55963816D01*
X150678297Y-56128228D01*
X150614147Y-56283100D01*
X150521015Y-56422481D01*
X150402481Y-56541015D01*
X150263100Y-56634147D01*
X150108228Y-56698297D01*
X149943816Y-56731000D01*
X149776184Y-56731000D01*
X149611772Y-56698297D01*
X149456900Y-56634147D01*
X149317519Y-56541015D01*
X149198985Y-56422481D01*
X149105853Y-56283100D01*
X149041703Y-56128228D01*
X149009000Y-55963816D01*
X149009000Y-55796184D01*
X149041703Y-55631772D01*
X149105853Y-55476900D01*
X149198985Y-55337519D01*
X149317519Y-55218985D01*
X149456900Y-55125853D01*
X149611772Y-55061703D01*
X149776184Y-55029000D01*
X149943816Y-55029000D01*
X150108228Y-55061703D01*
X150108228Y-55061703D01*
G37*
G36*
X157592916Y-55087334D02*
G01*
X157701492Y-55120271D01*
X157701495Y-55120272D01*
X157714495Y-55127221D01*
X157801557Y-55173756D01*
X157889264Y-55245736D01*
X157952383Y-55322646D01*
X157969702Y-55339965D01*
X157990077Y-55353579D01*
X158012716Y-55362957D01*
X158036749Y-55367737D01*
X158061253Y-55367737D01*
X158085286Y-55362957D01*
X158107925Y-55353579D01*
X158128299Y-55339966D01*
X158145626Y-55322639D01*
X158159240Y-55302264D01*
X158168618Y-55279625D01*
X158173398Y-55255592D01*
X158174000Y-55243340D01*
X158174000Y-55079000D01*
X159326000Y-55079000D01*
X159326000Y-56681000D01*
X158174000Y-56681000D01*
X158174000Y-56516660D01*
X158171598Y-56492274D01*
X158164485Y-56468825D01*
X158152934Y-56447214D01*
X158137389Y-56428272D01*
X158118447Y-56412727D01*
X158096836Y-56401176D01*
X158073387Y-56394063D01*
X158049001Y-56391661D01*
X158024615Y-56394063D01*
X158001166Y-56401176D01*
X157979555Y-56412727D01*
X157952381Y-56437356D01*
X157889264Y-56514264D01*
X157801556Y-56586244D01*
X157737600Y-56620429D01*
X157701494Y-56639728D01*
X157701491Y-56639729D01*
X157592915Y-56672666D01*
X157480000Y-56683787D01*
X157367084Y-56672666D01*
X157258508Y-56639729D01*
X157258505Y-56639728D01*
X157222399Y-56620429D01*
X157158443Y-56586244D01*
X157070736Y-56514264D01*
X156998756Y-56426556D01*
X156955239Y-56345140D01*
X156941625Y-56324766D01*
X156924298Y-56307439D01*
X156903924Y-56293825D01*
X156881285Y-56284448D01*
X156857251Y-56279668D01*
X156832747Y-56279668D01*
X156808714Y-56284449D01*
X156786075Y-56293826D01*
X156765701Y-56307440D01*
X156748374Y-56324767D01*
X156734762Y-56345140D01*
X156691244Y-56426557D01*
X156619264Y-56514264D01*
X156531556Y-56586244D01*
X156467600Y-56620429D01*
X156431494Y-56639728D01*
X156431491Y-56639729D01*
X156322915Y-56672666D01*
X156210000Y-56683787D01*
X156097084Y-56672666D01*
X155988508Y-56639729D01*
X155988505Y-56639728D01*
X155952399Y-56620429D01*
X155888443Y-56586244D01*
X155800736Y-56514264D01*
X155728756Y-56426556D01*
X155685239Y-56345140D01*
X155675272Y-56326494D01*
X155674748Y-56324766D01*
X155642334Y-56217915D01*
X155634000Y-56133297D01*
X155634000Y-55626702D01*
X155642334Y-55542084D01*
X155675271Y-55433508D01*
X155675272Y-55433505D01*
X155728756Y-55333445D01*
X155728757Y-55333443D01*
X155800737Y-55245736D01*
X155888444Y-55173756D01*
X155975506Y-55127221D01*
X155988506Y-55120272D01*
X155988509Y-55120271D01*
X156097085Y-55087334D01*
X156210000Y-55076213D01*
X156322916Y-55087334D01*
X156431492Y-55120271D01*
X156431495Y-55120272D01*
X156444495Y-55127221D01*
X156531557Y-55173756D01*
X156619264Y-55245736D01*
X156691244Y-55333443D01*
X156707019Y-55362957D01*
X156734761Y-55414859D01*
X156748375Y-55435234D01*
X156765702Y-55452561D01*
X156786076Y-55466174D01*
X156808715Y-55475552D01*
X156832748Y-55480332D01*
X156857252Y-55480332D01*
X156881285Y-55475552D01*
X156903924Y-55466174D01*
X156924299Y-55452560D01*
X156941626Y-55435233D01*
X156955239Y-55414859D01*
X156998756Y-55333445D01*
X156998757Y-55333443D01*
X157070737Y-55245736D01*
X157158444Y-55173756D01*
X157245506Y-55127221D01*
X157258506Y-55120272D01*
X157258509Y-55120271D01*
X157367085Y-55087334D01*
X157480000Y-55076213D01*
X157592916Y-55087334D01*
X157592916Y-55087334D01*
G37*
G36*
X132930659Y-53464394D02*
G01*
X133064758Y-53505073D01*
X133188345Y-53571132D01*
X133296670Y-53660031D01*
X133385569Y-53768356D01*
X133451628Y-53891943D01*
X133492307Y-54026042D01*
X133506042Y-54165501D01*
X133492307Y-54304960D01*
X133451628Y-54439059D01*
X133385569Y-54562646D01*
X133296670Y-54670971D01*
X133188345Y-54759870D01*
X133064758Y-54825929D01*
X132930659Y-54866608D01*
X132826149Y-54876901D01*
X131435451Y-54876901D01*
X131330941Y-54866608D01*
X131196842Y-54825929D01*
X131073255Y-54759870D01*
X130964930Y-54670971D01*
X130876031Y-54562646D01*
X130809972Y-54439059D01*
X130769293Y-54304960D01*
X130755558Y-54165501D01*
X130769293Y-54026042D01*
X130809972Y-53891943D01*
X130876031Y-53768356D01*
X130964930Y-53660031D01*
X131073255Y-53571132D01*
X131196842Y-53505073D01*
X131330941Y-53464394D01*
X131435451Y-53454101D01*
X132826149Y-53454101D01*
X132930659Y-53464394D01*
X132930659Y-53464394D01*
G37*
G36*
X125310659Y-53464394D02*
G01*
X125444758Y-53505073D01*
X125568345Y-53571132D01*
X125676670Y-53660031D01*
X125765569Y-53768356D01*
X125831628Y-53891943D01*
X125872307Y-54026042D01*
X125886042Y-54165501D01*
X125872307Y-54304960D01*
X125831628Y-54439059D01*
X125765569Y-54562646D01*
X125676670Y-54670971D01*
X125568345Y-54759870D01*
X125444758Y-54825929D01*
X125310659Y-54866608D01*
X125206149Y-54876901D01*
X123815451Y-54876901D01*
X123710941Y-54866608D01*
X123576842Y-54825929D01*
X123453255Y-54759870D01*
X123344930Y-54670971D01*
X123256031Y-54562646D01*
X123189972Y-54439059D01*
X123149293Y-54304960D01*
X123135558Y-54165501D01*
X123149293Y-54026042D01*
X123189972Y-53891943D01*
X123256031Y-53768356D01*
X123344930Y-53660031D01*
X123453255Y-53571132D01*
X123576842Y-53505073D01*
X123710941Y-53464394D01*
X123815451Y-53454101D01*
X125206149Y-53454101D01*
X125310659Y-53464394D01*
X125310659Y-53464394D01*
G37*
G36*
X119490443Y-52445519D02*
G01*
X119556627Y-52452037D01*
X119726466Y-52503557D01*
X119882991Y-52587222D01*
X119918729Y-52616552D01*
X120020186Y-52699814D01*
X120103448Y-52801271D01*
X120132778Y-52837009D01*
X120216443Y-52993534D01*
X120267963Y-53163373D01*
X120285359Y-53340000D01*
X120267963Y-53516627D01*
X120216443Y-53686466D01*
X120132778Y-53842991D01*
X120103448Y-53878729D01*
X120020186Y-53980186D01*
X119918729Y-54063448D01*
X119882991Y-54092778D01*
X119726466Y-54176443D01*
X119556627Y-54227963D01*
X119490442Y-54234482D01*
X119424260Y-54241000D01*
X119335740Y-54241000D01*
X119269558Y-54234482D01*
X119203373Y-54227963D01*
X119033534Y-54176443D01*
X118877009Y-54092778D01*
X118841271Y-54063448D01*
X118739814Y-53980186D01*
X118656552Y-53878729D01*
X118627222Y-53842991D01*
X118543557Y-53686466D01*
X118492037Y-53516627D01*
X118474641Y-53340000D01*
X118492037Y-53163373D01*
X118543557Y-52993534D01*
X118627222Y-52837009D01*
X118656552Y-52801271D01*
X118739814Y-52699814D01*
X118841271Y-52616552D01*
X118877009Y-52587222D01*
X119033534Y-52503557D01*
X119203373Y-52452037D01*
X119269558Y-52445518D01*
X119335740Y-52439000D01*
X119424260Y-52439000D01*
X119490443Y-52445519D01*
X119490443Y-52445519D01*
G37*
G36*
X132930659Y-50924394D02*
G01*
X133064758Y-50965073D01*
X133188345Y-51031132D01*
X133296670Y-51120031D01*
X133385569Y-51228356D01*
X133451628Y-51351943D01*
X133492307Y-51486042D01*
X133506042Y-51625501D01*
X133492307Y-51764960D01*
X133451628Y-51899059D01*
X133385569Y-52022646D01*
X133296670Y-52130971D01*
X133188345Y-52219870D01*
X133064758Y-52285929D01*
X132930659Y-52326608D01*
X132826149Y-52336901D01*
X131435451Y-52336901D01*
X131330941Y-52326608D01*
X131196842Y-52285929D01*
X131073255Y-52219870D01*
X130964930Y-52130971D01*
X130876031Y-52022646D01*
X130809972Y-51899059D01*
X130769293Y-51764960D01*
X130755558Y-51625501D01*
X130769293Y-51486042D01*
X130809972Y-51351943D01*
X130876031Y-51228356D01*
X130964930Y-51120031D01*
X131073255Y-51031132D01*
X131196842Y-50965073D01*
X131330941Y-50924394D01*
X131435451Y-50914101D01*
X132826149Y-50914101D01*
X132930659Y-50924394D01*
X132930659Y-50924394D01*
G37*
G36*
X125310659Y-50924394D02*
G01*
X125444758Y-50965073D01*
X125568345Y-51031132D01*
X125676670Y-51120031D01*
X125765569Y-51228356D01*
X125831628Y-51351943D01*
X125872307Y-51486042D01*
X125886042Y-51625501D01*
X125872307Y-51764960D01*
X125831628Y-51899059D01*
X125765569Y-52022646D01*
X125676670Y-52130971D01*
X125568345Y-52219870D01*
X125444758Y-52285929D01*
X125310659Y-52326608D01*
X125206149Y-52336901D01*
X123815451Y-52336901D01*
X123710941Y-52326608D01*
X123576842Y-52285929D01*
X123453255Y-52219870D01*
X123344930Y-52130971D01*
X123256031Y-52022646D01*
X123189972Y-51899059D01*
X123149293Y-51764960D01*
X123135558Y-51625501D01*
X123149293Y-51486042D01*
X123189972Y-51351943D01*
X123256031Y-51228356D01*
X123344930Y-51120031D01*
X123453255Y-51031132D01*
X123576842Y-50965073D01*
X123710941Y-50924394D01*
X123815451Y-50914101D01*
X125206149Y-50914101D01*
X125310659Y-50924394D01*
X125310659Y-50924394D01*
G37*
G36*
X120281000Y-51701000D02*
G01*
X118479000Y-51701000D01*
X118479000Y-49899000D01*
X120281000Y-49899000D01*
X120281000Y-51701000D01*
X120281000Y-51701000D01*
G37*
G36*
X150108228Y-48711703D02*
G01*
X150263100Y-48775853D01*
X150402481Y-48868985D01*
X150521015Y-48987519D01*
X150614147Y-49126900D01*
X150678297Y-49281772D01*
X150711000Y-49446184D01*
X150711000Y-49613816D01*
X150678297Y-49778228D01*
X150614147Y-49933100D01*
X150521015Y-50072481D01*
X150402481Y-50191015D01*
X150263100Y-50284147D01*
X150108228Y-50348297D01*
X149943816Y-50381000D01*
X149776184Y-50381000D01*
X149611772Y-50348297D01*
X149456900Y-50284147D01*
X149317519Y-50191015D01*
X149198985Y-50072481D01*
X149105853Y-49933100D01*
X149041703Y-49778228D01*
X149009000Y-49613816D01*
X149009000Y-49446184D01*
X149041703Y-49281772D01*
X149105853Y-49126900D01*
X149198985Y-48987519D01*
X149317519Y-48868985D01*
X149456900Y-48775853D01*
X149611772Y-48711703D01*
X149776184Y-48679000D01*
X149943816Y-48679000D01*
X150108228Y-48711703D01*
X150108228Y-48711703D01*
G37*
G36*
X137326823Y-48691313D02*
G01*
X137487242Y-48739976D01*
X137609228Y-48805179D01*
X137635078Y-48818996D01*
X137764659Y-48925341D01*
X137871004Y-49054922D01*
X137871005Y-49054924D01*
X137950024Y-49202758D01*
X137998687Y-49363177D01*
X138015117Y-49530000D01*
X137998687Y-49696823D01*
X137950024Y-49857242D01*
X137909477Y-49933100D01*
X137871004Y-50005078D01*
X137764659Y-50134659D01*
X137635078Y-50241004D01*
X137635076Y-50241005D01*
X137487242Y-50320024D01*
X137326823Y-50368687D01*
X137201804Y-50381000D01*
X137118196Y-50381000D01*
X136993177Y-50368687D01*
X136832758Y-50320024D01*
X136684924Y-50241005D01*
X136684922Y-50241004D01*
X136555341Y-50134659D01*
X136448996Y-50005078D01*
X136410523Y-49933100D01*
X136369976Y-49857242D01*
X136321313Y-49696823D01*
X136304883Y-49530000D01*
X136321313Y-49363177D01*
X136369976Y-49202758D01*
X136448995Y-49054924D01*
X136448996Y-49054922D01*
X136555341Y-48925341D01*
X136684922Y-48818996D01*
X136710772Y-48805179D01*
X136832758Y-48739976D01*
X136993177Y-48691313D01*
X137118196Y-48679000D01*
X137201804Y-48679000D01*
X137326823Y-48691313D01*
X137326823Y-48691313D01*
G37*
G36*
X156795515Y-48730417D02*
G01*
X156807066Y-48752028D01*
X156822611Y-48770970D01*
X156841553Y-48786515D01*
X156863164Y-48798066D01*
X156886613Y-48805179D01*
X156910999Y-48807581D01*
X156935385Y-48805179D01*
X156958834Y-48798066D01*
X156980445Y-48786515D01*
X156990298Y-48779207D01*
X157004556Y-48767506D01*
X157043434Y-48746725D01*
X157085627Y-48733926D01*
X157135641Y-48729000D01*
X157824359Y-48729000D01*
X157874373Y-48733926D01*
X157916566Y-48746725D01*
X157955444Y-48767506D01*
X157989525Y-48795475D01*
X158018375Y-48830629D01*
X158035702Y-48847956D01*
X158056076Y-48861569D01*
X158078715Y-48870947D01*
X158102748Y-48875727D01*
X158127253Y-48875727D01*
X158151286Y-48870946D01*
X158173925Y-48861569D01*
X158194299Y-48847955D01*
X158211625Y-48830629D01*
X158240475Y-48795475D01*
X158274556Y-48767506D01*
X158313434Y-48746725D01*
X158355627Y-48733926D01*
X158405641Y-48729000D01*
X159094359Y-48729000D01*
X159144373Y-48733926D01*
X159186566Y-48746725D01*
X159225444Y-48767506D01*
X159259525Y-48795475D01*
X159287494Y-48829556D01*
X159308275Y-48868434D01*
X159321074Y-48910627D01*
X159326000Y-48960641D01*
X159326000Y-50099359D01*
X159321074Y-50149373D01*
X159308275Y-50191566D01*
X159287494Y-50230444D01*
X159259525Y-50264525D01*
X159225444Y-50292494D01*
X159186566Y-50313275D01*
X159144373Y-50326074D01*
X159094359Y-50331000D01*
X158405641Y-50331000D01*
X158355627Y-50326074D01*
X158313434Y-50313275D01*
X158274556Y-50292494D01*
X158240475Y-50264525D01*
X158211625Y-50229371D01*
X158194298Y-50212044D01*
X158173924Y-50198431D01*
X158151285Y-50189053D01*
X158127252Y-50184273D01*
X158102747Y-50184273D01*
X158078714Y-50189054D01*
X158056075Y-50198431D01*
X158035701Y-50212045D01*
X158018375Y-50229371D01*
X157989525Y-50264525D01*
X157955444Y-50292494D01*
X157916566Y-50313275D01*
X157874373Y-50326074D01*
X157824359Y-50331000D01*
X157135641Y-50331000D01*
X157085627Y-50326074D01*
X157043434Y-50313275D01*
X157004556Y-50292494D01*
X156990298Y-50280793D01*
X156969924Y-50267179D01*
X156947285Y-50257802D01*
X156923252Y-50253021D01*
X156898748Y-50253021D01*
X156874714Y-50257801D01*
X156852075Y-50267178D01*
X156831701Y-50280792D01*
X156814374Y-50298119D01*
X156800760Y-50318493D01*
X156795580Y-50331000D01*
X155634000Y-50331000D01*
X155634000Y-48729000D01*
X156795085Y-48729000D01*
X156795515Y-48730417D01*
X156795515Y-48730417D01*
G37*
G36*
X125310659Y-48384394D02*
G01*
X125444758Y-48425073D01*
X125568345Y-48491132D01*
X125676670Y-48580031D01*
X125765569Y-48688356D01*
X125831628Y-48811943D01*
X125872307Y-48946042D01*
X125886042Y-49085501D01*
X125872307Y-49224960D01*
X125831628Y-49359059D01*
X125765569Y-49482646D01*
X125676670Y-49590971D01*
X125568345Y-49679870D01*
X125444758Y-49745929D01*
X125310659Y-49786608D01*
X125206149Y-49796901D01*
X123815451Y-49796901D01*
X123710941Y-49786608D01*
X123576842Y-49745929D01*
X123453255Y-49679870D01*
X123344930Y-49590971D01*
X123256031Y-49482646D01*
X123189972Y-49359059D01*
X123149293Y-49224960D01*
X123135558Y-49085501D01*
X123149293Y-48946042D01*
X123189972Y-48811943D01*
X123256031Y-48688356D01*
X123344930Y-48580031D01*
X123453255Y-48491132D01*
X123576842Y-48425073D01*
X123710941Y-48384394D01*
X123815451Y-48374101D01*
X125206149Y-48374101D01*
X125310659Y-48384394D01*
X125310659Y-48384394D01*
G37*
G36*
X132930659Y-48384394D02*
G01*
X133064758Y-48425073D01*
X133188345Y-48491132D01*
X133296670Y-48580031D01*
X133385569Y-48688356D01*
X133451628Y-48811943D01*
X133492307Y-48946042D01*
X133506042Y-49085501D01*
X133492307Y-49224960D01*
X133451628Y-49359059D01*
X133385569Y-49482646D01*
X133296670Y-49590971D01*
X133188345Y-49679870D01*
X133064758Y-49745929D01*
X132930659Y-49786608D01*
X132826149Y-49796901D01*
X131435451Y-49796901D01*
X131330941Y-49786608D01*
X131196842Y-49745929D01*
X131073255Y-49679870D01*
X130964930Y-49590971D01*
X130876031Y-49482646D01*
X130809972Y-49359059D01*
X130769293Y-49224960D01*
X130755558Y-49085501D01*
X130769293Y-48946042D01*
X130809972Y-48811943D01*
X130876031Y-48688356D01*
X130964930Y-48580031D01*
X131073255Y-48491132D01*
X131196842Y-48425073D01*
X131330941Y-48384394D01*
X131435451Y-48374101D01*
X132826149Y-48374101D01*
X132930659Y-48384394D01*
X132930659Y-48384394D01*
G37*
M02*
