G04 #@! TF.GenerationSoftware,KiCad,Pcbnew,(5.1.2-1)-1*
G04 #@! TF.CreationDate,2020-06-28T11:55:39+09:00*
G04 #@! TF.ProjectId,7seg_module,37736567-5f6d-46f6-9475-6c652e6b6963,rev?*
G04 #@! TF.SameCoordinates,Original*
G04 #@! TF.FileFunction,Legend,Top*
G04 #@! TF.FilePolarity,Positive*
%FSLAX46Y46*%
G04 Gerber Fmt 4.6, Leading zero omitted, Abs format (unit mm)*
G04 Created by KiCad (PCBNEW (5.1.2-1)-1) date 2020-06-28 11:55:39*
%MOMM*%
%LPD*%
G04 APERTURE LIST*
%ADD10C,0.120000*%
%ADD11C,0.127000*%
%ADD12C,0.150000*%
%ADD13C,0.015000*%
G04 APERTURE END LIST*
D10*
X109220000Y-71120000D02*
X109220000Y-82550000D01*
X109220000Y-82550000D02*
X109220000Y-83820000D01*
X109220000Y-83820000D02*
X121920000Y-83820000D01*
X121920000Y-83820000D02*
X121920000Y-71120000D01*
X121920000Y-71120000D02*
X109220000Y-71120000D01*
X109290000Y-49590000D02*
X117920000Y-49590000D01*
X109290000Y-49708095D02*
X117920000Y-49708095D01*
X109290000Y-49826190D02*
X117920000Y-49826190D01*
X109290000Y-49944285D02*
X117920000Y-49944285D01*
X109290000Y-50062380D02*
X117920000Y-50062380D01*
X109290000Y-50180475D02*
X117920000Y-50180475D01*
X109290000Y-50298570D02*
X117920000Y-50298570D01*
X109290000Y-50416665D02*
X117920000Y-50416665D01*
X109290000Y-50534760D02*
X117920000Y-50534760D01*
X109290000Y-50652855D02*
X117920000Y-50652855D01*
X109290000Y-50770950D02*
X117920000Y-50770950D01*
X109290000Y-50889045D02*
X117920000Y-50889045D01*
X109290000Y-51007140D02*
X117920000Y-51007140D01*
X109290000Y-51125235D02*
X117920000Y-51125235D01*
X109290000Y-51243330D02*
X117920000Y-51243330D01*
X109290000Y-51361425D02*
X117920000Y-51361425D01*
X109290000Y-51479520D02*
X117920000Y-51479520D01*
X109290000Y-51597615D02*
X117920000Y-51597615D01*
X109290000Y-51715710D02*
X117920000Y-51715710D01*
X109290000Y-51833805D02*
X117920000Y-51833805D01*
X109290000Y-51951900D02*
X117920000Y-51951900D01*
X117920000Y-50440000D02*
X118270000Y-50440000D01*
X117920000Y-51160000D02*
X118270000Y-51160000D01*
X117920000Y-52980000D02*
X118330000Y-52980000D01*
X117920000Y-53700000D02*
X118330000Y-53700000D01*
X117920000Y-55520000D02*
X118330000Y-55520000D01*
X117920000Y-56240000D02*
X118330000Y-56240000D01*
X117920000Y-58060000D02*
X118330000Y-58060000D01*
X117920000Y-58780000D02*
X118330000Y-58780000D01*
X117920000Y-60600000D02*
X118330000Y-60600000D01*
X117920000Y-61320000D02*
X118330000Y-61320000D01*
X117920000Y-63140000D02*
X118330000Y-63140000D01*
X117920000Y-63860000D02*
X118330000Y-63860000D01*
X117920000Y-65680000D02*
X118330000Y-65680000D01*
X117920000Y-66400000D02*
X118330000Y-66400000D01*
X109290000Y-52070000D02*
X117920000Y-52070000D01*
X109290000Y-54610000D02*
X117920000Y-54610000D01*
X109290000Y-57150000D02*
X117920000Y-57150000D01*
X109290000Y-59690000D02*
X117920000Y-59690000D01*
X109290000Y-62230000D02*
X117920000Y-62230000D01*
X109290000Y-64770000D02*
X117920000Y-64770000D01*
X109290000Y-49470000D02*
X117920000Y-49470000D01*
X117920000Y-49470000D02*
X117920000Y-67370000D01*
X109290000Y-67370000D02*
X117920000Y-67370000D01*
X109290000Y-49470000D02*
X109290000Y-67370000D01*
X120490000Y-49470000D02*
X120490000Y-50800000D01*
X119380000Y-49470000D02*
X120490000Y-49470000D01*
X155460000Y-51230000D02*
X159310000Y-51230000D01*
X159348611Y-51220122D02*
G75*
G03X155460000Y-51230000I-1948611J1690122D01*
G01*
X155641522Y-54041522D02*
G75*
G03X157480000Y-58480000I1838478J-1838478D01*
G01*
X159318478Y-54041522D02*
G75*
G02X157480000Y-58480000I-1838478J-1838478D01*
G01*
X159280000Y-54030000D02*
X155680000Y-54030000D01*
X165550000Y-72850000D02*
X162110000Y-72850000D01*
X162110000Y-72850000D02*
X162110000Y-82090000D01*
X162110000Y-82090000D02*
X165550000Y-82090000D01*
X165550000Y-82090000D02*
X165550000Y-72850000D01*
X163830000Y-72160000D02*
X163830000Y-72850000D01*
X163830000Y-82780000D02*
X163830000Y-82090000D01*
X138200000Y-55880000D02*
X138890000Y-55880000D01*
X148820000Y-55880000D02*
X148130000Y-55880000D01*
X138890000Y-57600000D02*
X148130000Y-57600000D01*
X138890000Y-54160000D02*
X138890000Y-57600000D01*
X148130000Y-54160000D02*
X138890000Y-54160000D01*
X148130000Y-57600000D02*
X148130000Y-54160000D01*
X148130000Y-51250000D02*
X148130000Y-47810000D01*
X148130000Y-47810000D02*
X138890000Y-47810000D01*
X138890000Y-47810000D02*
X138890000Y-51250000D01*
X138890000Y-51250000D02*
X148130000Y-51250000D01*
X148820000Y-49530000D02*
X148130000Y-49530000D01*
X138200000Y-49530000D02*
X138890000Y-49530000D01*
X158750000Y-82780000D02*
X158750000Y-82090000D01*
X158750000Y-72160000D02*
X158750000Y-72850000D01*
X160470000Y-82090000D02*
X160470000Y-72850000D01*
X157030000Y-82090000D02*
X160470000Y-82090000D01*
X157030000Y-72850000D02*
X157030000Y-82090000D01*
X160470000Y-72850000D02*
X157030000Y-72850000D01*
X136150000Y-59520000D02*
X138430000Y-59520000D01*
X136150000Y-59520000D02*
X136150000Y-62230000D01*
X136405000Y-59770000D02*
X155695000Y-59770000D01*
X155695000Y-59770000D02*
X155695000Y-85020000D01*
X155695000Y-85020000D02*
X136405000Y-85020000D01*
X136405000Y-85020000D02*
X136405000Y-59770000D01*
D11*
X127685800Y-47053501D02*
X125526800Y-47053501D01*
X128955800Y-47053501D02*
G75*
G02X127685800Y-47053501I-635000J0D01*
G01*
X125526800Y-47053501D02*
X125526800Y-84137501D01*
X131114800Y-47053501D02*
X128955800Y-47053501D01*
X131114800Y-47053501D02*
X131114800Y-84137501D01*
X131114800Y-84137501D02*
X125526800Y-84137501D01*
D12*
X114784285Y-79938571D02*
X114927142Y-79986190D01*
X114974761Y-80033809D01*
X115022380Y-80129047D01*
X115022380Y-80271904D01*
X114974761Y-80367142D01*
X114927142Y-80414761D01*
X114831904Y-80462380D01*
X114450952Y-80462380D01*
X114450952Y-79462380D01*
X114784285Y-79462380D01*
X114879523Y-79510000D01*
X114927142Y-79557619D01*
X114974761Y-79652857D01*
X114974761Y-79748095D01*
X114927142Y-79843333D01*
X114879523Y-79890952D01*
X114784285Y-79938571D01*
X114450952Y-79938571D01*
X115308095Y-79462380D02*
X115879523Y-79462380D01*
X115593809Y-80462380D02*
X115593809Y-79462380D01*
X116736666Y-80462380D02*
X116165238Y-80462380D01*
X116450952Y-80462380D02*
X116450952Y-79462380D01*
X116355714Y-79605238D01*
X116260476Y-79700476D01*
X116165238Y-79748095D01*
X114666666Y-47482380D02*
X114666666Y-48196666D01*
X114619047Y-48339523D01*
X114523809Y-48434761D01*
X114380952Y-48482380D01*
X114285714Y-48482380D01*
X115666666Y-48482380D02*
X115095238Y-48482380D01*
X115380952Y-48482380D02*
X115380952Y-47482380D01*
X115285714Y-47625238D01*
X115190476Y-47720476D01*
X115095238Y-47768095D01*
X157304761Y-46517619D02*
X157209523Y-46470000D01*
X157114285Y-46374761D01*
X156971428Y-46231904D01*
X156876190Y-46184285D01*
X156780952Y-46184285D01*
X156828571Y-46422380D02*
X156733333Y-46374761D01*
X156638095Y-46279523D01*
X156590476Y-46089047D01*
X156590476Y-45755714D01*
X156638095Y-45565238D01*
X156733333Y-45470000D01*
X156828571Y-45422380D01*
X157019047Y-45422380D01*
X157114285Y-45470000D01*
X157209523Y-45565238D01*
X157257142Y-45755714D01*
X157257142Y-46089047D01*
X157209523Y-46279523D01*
X157114285Y-46374761D01*
X157019047Y-46422380D01*
X156828571Y-46422380D01*
X158209523Y-46422380D02*
X157638095Y-46422380D01*
X157923809Y-46422380D02*
X157923809Y-45422380D01*
X157828571Y-45565238D01*
X157733333Y-45660476D01*
X157638095Y-45708095D01*
X157384761Y-59987619D02*
X157289523Y-59940000D01*
X157194285Y-59844761D01*
X157051428Y-59701904D01*
X156956190Y-59654285D01*
X156860952Y-59654285D01*
X156908571Y-59892380D02*
X156813333Y-59844761D01*
X156718095Y-59749523D01*
X156670476Y-59559047D01*
X156670476Y-59225714D01*
X156718095Y-59035238D01*
X156813333Y-58940000D01*
X156908571Y-58892380D01*
X157099047Y-58892380D01*
X157194285Y-58940000D01*
X157289523Y-59035238D01*
X157337142Y-59225714D01*
X157337142Y-59559047D01*
X157289523Y-59749523D01*
X157194285Y-59844761D01*
X157099047Y-59892380D01*
X156908571Y-59892380D01*
X157718095Y-58987619D02*
X157765714Y-58940000D01*
X157860952Y-58892380D01*
X158099047Y-58892380D01*
X158194285Y-58940000D01*
X158241904Y-58987619D01*
X158289523Y-59082857D01*
X158289523Y-59178095D01*
X158241904Y-59320952D01*
X157670476Y-59892380D01*
X158289523Y-59892380D01*
X167002380Y-77636666D02*
X166526190Y-77970000D01*
X167002380Y-78208095D02*
X166002380Y-78208095D01*
X166002380Y-77827142D01*
X166050000Y-77731904D01*
X166097619Y-77684285D01*
X166192857Y-77636666D01*
X166335714Y-77636666D01*
X166430952Y-77684285D01*
X166478571Y-77731904D01*
X166526190Y-77827142D01*
X166526190Y-78208095D01*
X166002380Y-77017619D02*
X166002380Y-76922380D01*
X166050000Y-76827142D01*
X166097619Y-76779523D01*
X166192857Y-76731904D01*
X166383333Y-76684285D01*
X166621428Y-76684285D01*
X166811904Y-76731904D01*
X166907142Y-76779523D01*
X166954761Y-76827142D01*
X167002380Y-76922380D01*
X167002380Y-77017619D01*
X166954761Y-77112857D01*
X166907142Y-77160476D01*
X166811904Y-77208095D01*
X166621428Y-77255714D01*
X166383333Y-77255714D01*
X166192857Y-77208095D01*
X166097619Y-77160476D01*
X166050000Y-77112857D01*
X166002380Y-77017619D01*
X143343333Y-59052380D02*
X143010000Y-58576190D01*
X142771904Y-59052380D02*
X142771904Y-58052380D01*
X143152857Y-58052380D01*
X143248095Y-58100000D01*
X143295714Y-58147619D01*
X143343333Y-58242857D01*
X143343333Y-58385714D01*
X143295714Y-58480952D01*
X143248095Y-58528571D01*
X143152857Y-58576190D01*
X142771904Y-58576190D01*
X144295714Y-59052380D02*
X143724285Y-59052380D01*
X144010000Y-59052380D02*
X144010000Y-58052380D01*
X143914761Y-58195238D01*
X143819523Y-58290476D01*
X143724285Y-58338095D01*
X143343333Y-52702380D02*
X143010000Y-52226190D01*
X142771904Y-52702380D02*
X142771904Y-51702380D01*
X143152857Y-51702380D01*
X143248095Y-51750000D01*
X143295714Y-51797619D01*
X143343333Y-51892857D01*
X143343333Y-52035714D01*
X143295714Y-52130952D01*
X143248095Y-52178571D01*
X143152857Y-52226190D01*
X142771904Y-52226190D01*
X143724285Y-51797619D02*
X143771904Y-51750000D01*
X143867142Y-51702380D01*
X144105238Y-51702380D01*
X144200476Y-51750000D01*
X144248095Y-51797619D01*
X144295714Y-51892857D01*
X144295714Y-51988095D01*
X144248095Y-52130952D01*
X143676666Y-52702380D01*
X144295714Y-52702380D01*
X161922380Y-77636666D02*
X161446190Y-77970000D01*
X161922380Y-78208095D02*
X160922380Y-78208095D01*
X160922380Y-77827142D01*
X160970000Y-77731904D01*
X161017619Y-77684285D01*
X161112857Y-77636666D01*
X161255714Y-77636666D01*
X161350952Y-77684285D01*
X161398571Y-77731904D01*
X161446190Y-77827142D01*
X161446190Y-78208095D01*
X160922380Y-77303333D02*
X160922380Y-76684285D01*
X161303333Y-77017619D01*
X161303333Y-76874761D01*
X161350952Y-76779523D01*
X161398571Y-76731904D01*
X161493809Y-76684285D01*
X161731904Y-76684285D01*
X161827142Y-76731904D01*
X161874761Y-76779523D01*
X161922380Y-76874761D01*
X161922380Y-77160476D01*
X161874761Y-77255714D01*
X161827142Y-77303333D01*
X137908095Y-58272380D02*
X137908095Y-59081904D01*
X137955714Y-59177142D01*
X138003333Y-59224761D01*
X138098571Y-59272380D01*
X138289047Y-59272380D01*
X138384285Y-59224761D01*
X138431904Y-59177142D01*
X138479523Y-59081904D01*
X138479523Y-58272380D01*
X139479523Y-59272380D02*
X138908095Y-59272380D01*
X139193809Y-59272380D02*
X139193809Y-58272380D01*
X139098571Y-58415238D01*
X139003333Y-58510476D01*
X138908095Y-58558095D01*
D13*
X127832770Y-46178729D02*
X127832770Y-46697261D01*
X127863272Y-46758264D01*
X127893774Y-46788766D01*
X127954777Y-46819268D01*
X128076785Y-46819268D01*
X128137788Y-46788766D01*
X128168290Y-46758264D01*
X128198792Y-46697261D01*
X128198792Y-46178729D01*
X128473309Y-46239733D02*
X128503811Y-46209231D01*
X128564814Y-46178729D01*
X128717324Y-46178729D01*
X128778327Y-46209231D01*
X128808829Y-46239733D01*
X128839331Y-46300737D01*
X128839331Y-46361740D01*
X128808829Y-46453246D01*
X128442807Y-46819268D01*
X128839331Y-46819268D01*
M02*
